<svg width="62" height="34" viewBox="0 0 62 34" fill="none" xmlns="http://www.w3.org/2000/svg">
<path d="M32.1171 31.9931C32.6656 31.9284 33.0578 31.4314 32.9931 30.8829L31.9395 21.9448C31.8748 21.3963 31.3777 21.0041 30.8293 21.0687C30.2808 21.1334 29.8886 21.6305 29.9532 22.1789L30.8898 30.1239L22.9448 31.0605C22.3963 31.1252 22.0041 31.6222 22.0688 32.1707C22.1334 32.7192 22.6305 33.1114 23.179 33.0468L32.1171 31.9931ZM-0.00792217 19.9999C7.11102 20.0563 12.2597 20.9001 16.9504 22.7534C21.6531 24.6115 25.9628 27.5099 31.3805 31.785L32.6195 30.215C27.1577 25.9051 22.6642 22.8605 17.6853 20.8933C12.6943 18.9214 7.28271 18.0576 0.00792278 18L-0.00792217 19.9999Z" fill="#E19595"/>
<path d="M44.5859 16.008C44.5326 16.0347 44.4712 16.0187 44.4019 15.96C44.3326 15.9014 44.2846 15.8534 44.2579 15.816C44.2099 15.752 44.1752 15.664 44.1539 15.552C44.1326 15.44 44.1219 15.3467 44.1219 15.272C44.1219 15.1334 44.1112 15.0534 44.0899 15.032C44.0739 15.0107 44.0392 15.0294 43.9859 15.088C43.9379 15.1414 43.8659 15.216 43.7699 15.312C43.7272 15.3547 43.6579 15.4107 43.5619 15.48C43.4659 15.5494 43.3672 15.608 43.2659 15.656C43.1646 15.704 43.0792 15.728 43.0099 15.728C42.9619 15.7227 42.9139 15.696 42.8659 15.648C42.8179 15.6 42.7752 15.5467 42.7379 15.488C42.7059 15.424 42.6819 15.3707 42.6659 15.328C42.6392 15.248 42.6366 15.1174 42.6579 14.936C42.6846 14.7494 42.7272 14.544 42.7859 14.32C42.8499 14.0907 42.9219 13.872 43.0019 13.664C43.0872 13.4507 43.1726 13.2774 43.2579 13.144C43.3486 13.0054 43.4366 12.936 43.5219 12.936C43.5806 12.936 43.6259 12.9707 43.6579 13.04C43.6952 13.104 43.7246 13.1574 43.7459 13.2C43.7726 13.2534 43.7806 13.288 43.7699 13.304C43.7646 13.32 43.7432 13.3494 43.7059 13.392C43.6632 13.4454 43.6126 13.536 43.5539 13.664C43.4952 13.7867 43.4339 13.9227 43.3699 14.072C43.3112 14.216 43.2579 14.3547 43.2099 14.488C43.1619 14.6214 43.1272 14.7227 43.1059 14.792C43.0952 14.8347 43.0792 14.8934 43.0579 14.968C43.0419 15.0427 43.0366 15.1014 43.0419 15.144C43.0419 15.1494 43.0446 15.1627 43.0499 15.184C43.0552 15.2 43.0766 15.208 43.1139 15.208C43.2312 15.208 43.3486 15.16 43.4659 15.064C43.5886 14.9627 43.7086 14.832 43.8259 14.672C43.9486 14.512 44.0632 14.344 44.1699 14.168C44.2766 13.992 44.3752 13.824 44.4659 13.664C44.5619 13.504 44.6446 13.3734 44.7139 13.272C44.7832 13.1654 44.8392 13.1094 44.8819 13.104C44.9192 13.0987 44.9619 13.104 45.0099 13.12C45.0632 13.1307 45.1086 13.1494 45.1459 13.176C45.1832 13.2027 45.1992 13.24 45.1939 13.288C45.1299 13.4854 45.0526 13.6827 44.9619 13.88C44.8712 14.072 44.7859 14.2667 44.7059 14.464C44.6312 14.6614 44.5779 14.864 44.5459 15.072C44.5246 15.2 44.5326 15.3254 44.5699 15.448C44.6126 15.5707 44.6792 15.68 44.7699 15.776C44.8232 15.8294 44.8179 15.88 44.7539 15.928C44.6899 15.976 44.6339 16.0027 44.5859 16.008Z" fill="#E19595"/>
<path d="M39.9252 18.072C39.8825 18.0454 39.8345 18.032 39.7812 18.032C39.7278 18.032 39.6798 18.0214 39.6372 18C39.5625 17.9627 39.4772 17.9094 39.3812 17.84C39.2905 17.7707 39.2318 17.696 39.2052 17.616C39.1998 17.6054 39.1972 17.592 39.1972 17.576C39.1972 17.5654 39.1945 17.5574 39.1892 17.552C39.1838 17.536 39.1732 17.52 39.1572 17.504C39.1412 17.4934 39.1305 17.48 39.1252 17.464C39.1145 17.432 39.1092 17.3974 39.1092 17.36C39.1038 17.328 39.1012 17.296 39.1012 17.264C39.0958 17.232 39.0852 17.2 39.0692 17.168C39.0905 17.1307 39.1092 17.0934 39.1252 17.056C39.1358 17.0187 39.1518 16.9814 39.1732 16.944C39.1998 16.9387 39.2265 16.9334 39.2532 16.928C39.2745 16.928 39.2958 16.9254 39.3172 16.92C39.3812 16.9147 39.4185 16.9574 39.4292 17.048C39.4452 17.1387 39.4665 17.2374 39.4932 17.344C39.5145 17.424 39.5492 17.496 39.5972 17.56C39.6505 17.624 39.7358 17.6587 39.8532 17.664C39.9865 17.6694 40.1012 17.6267 40.1972 17.536C40.2985 17.4507 40.3838 17.3414 40.4532 17.208C40.5225 17.0747 40.5758 16.944 40.6132 16.816C40.6238 16.7947 40.6318 16.7734 40.6372 16.752C40.6425 16.7307 40.6478 16.7094 40.6532 16.688C40.6638 16.672 40.6718 16.6534 40.6772 16.632C40.6772 16.584 40.6878 16.528 40.7092 16.464C40.7358 16.4054 40.7518 16.3494 40.7572 16.296C40.7678 16.2 40.7838 16.0987 40.8052 15.992C40.8265 15.8854 40.8185 15.784 40.7812 15.688C40.7812 15.688 40.7785 15.6667 40.7732 15.624C40.7678 15.5814 40.7625 15.536 40.7572 15.488C40.7518 15.44 40.7492 15.4134 40.7492 15.408C40.7118 15.36 40.6798 15.3094 40.6532 15.256C40.6318 15.1974 40.5998 15.144 40.5572 15.096C40.5572 15.0587 40.5545 15.024 40.5492 14.992C40.5492 14.96 40.5492 14.9254 40.5492 14.888C40.5652 14.8774 40.5785 14.864 40.5892 14.848C40.5998 14.832 40.6158 14.8214 40.6372 14.816C40.7972 14.7574 40.9492 14.68 41.0932 14.584C41.2372 14.4827 41.3625 14.3654 41.4692 14.232C41.5758 14.0987 41.6532 13.9494 41.7012 13.784C41.7172 13.7254 41.7278 13.6667 41.7332 13.608C41.7385 13.5494 41.7332 13.4907 41.7172 13.432C41.6745 13.4 41.6292 13.392 41.5812 13.408C41.3785 13.4667 41.2265 13.544 41.1252 13.64C41.0292 13.736 40.9465 13.8427 40.8772 13.96C40.8078 14.072 40.7145 14.1867 40.5972 14.304C40.5598 14.2667 40.5225 14.2507 40.4852 14.256C40.4532 14.256 40.4185 14.2427 40.3812 14.216C40.3652 14.2 40.3465 14.1787 40.3252 14.152C40.3092 14.12 40.2878 14.0774 40.2612 14.024C40.3092 13.9707 40.3412 13.912 40.3572 13.848C40.3785 13.7787 40.4078 13.72 40.4452 13.672C40.5305 13.5707 40.6078 13.4774 40.6772 13.392C40.7465 13.3067 40.8398 13.2267 40.9572 13.152C41.0798 13.072 41.2078 13.0134 41.3412 12.976C41.4798 12.9387 41.6158 12.9334 41.7492 12.96C41.8825 12.9867 41.9972 13.064 42.0932 13.192C42.1892 13.3094 42.2372 13.4454 42.2372 13.6C42.2425 13.7494 42.2158 13.9014 42.1572 14.056C42.0985 14.2107 42.0185 14.3547 41.9172 14.488C41.8105 14.6267 41.6905 14.7387 41.5572 14.824C41.4292 14.9094 41.2958 15.0054 41.1572 15.112C41.1945 15.256 41.2318 15.4027 41.2692 15.552C41.3065 15.696 41.3198 15.8454 41.3092 16C41.2932 16.1867 41.2692 16.368 41.2372 16.544C41.2105 16.72 41.1678 16.8854 41.1092 17.04C41.0505 17.2 40.9732 17.3494 40.8772 17.488C40.7812 17.6267 40.6558 17.7547 40.5012 17.872C40.4158 17.9414 40.3198 17.9894 40.2132 18.016C40.1118 18.0427 40.0158 18.0614 39.9252 18.072Z" fill="#E19595"/>
<path d="M39.2967 13.232C39.2327 13.232 39.1421 13.2294 39.0247 13.224C38.9127 13.2187 38.8274 13.2294 38.7687 13.256C38.7047 13.288 38.6407 13.336 38.5767 13.4C38.5127 13.4587 38.4594 13.5254 38.4167 13.6C38.3741 13.6747 38.3501 13.752 38.3447 13.832C38.3447 13.88 38.3554 13.928 38.3767 13.976C38.4034 14.0187 38.4434 14.0614 38.4967 14.104C38.5767 14.1574 38.6674 14.2107 38.7687 14.264C38.8754 14.3174 38.9634 14.3734 39.0327 14.432C39.0807 14.3254 39.1127 14.2214 39.1287 14.12C39.1501 14.0187 39.1821 13.92 39.2247 13.824C39.2354 13.7974 39.2461 13.744 39.2567 13.664C39.2727 13.5787 39.2834 13.4934 39.2887 13.408C39.2994 13.3174 39.3021 13.2587 39.2967 13.232ZM39.0247 16C38.9821 15.9734 38.9394 15.9467 38.8967 15.92C38.8541 15.888 38.8114 15.8587 38.7687 15.832C38.7581 15.656 38.7741 15.4827 38.8167 15.312C38.8647 15.136 38.9074 14.9654 38.9447 14.8C38.9394 14.784 38.9234 14.7787 38.8967 14.784C38.8701 14.7894 38.8381 14.8027 38.8007 14.824C38.7314 14.8614 38.6567 14.9094 38.5767 14.968C38.4967 15.0214 38.4461 15.056 38.4247 15.072C38.3981 15.088 38.3367 15.128 38.2407 15.192C38.1501 15.2507 38.0487 15.3174 37.9367 15.392C37.8247 15.4614 37.7234 15.5227 37.6327 15.576C37.5474 15.6294 37.4994 15.656 37.4887 15.656C37.3927 15.6507 37.3234 15.6134 37.2807 15.544C37.2434 15.4694 37.2167 15.3894 37.2007 15.304C37.2381 15.2507 37.2781 15.208 37.3207 15.176C37.3687 15.144 37.4221 15.12 37.4807 15.104C37.5501 15.0827 37.6461 15.0374 37.7687 14.968C37.8914 14.8987 38.0194 14.8214 38.1527 14.736C38.2861 14.6454 38.3954 14.5707 38.4807 14.512C38.4434 14.496 38.4034 14.48 38.3607 14.464C38.3181 14.4427 38.2754 14.424 38.2327 14.408C38.1581 14.3547 38.0967 14.3014 38.0487 14.248C38.0007 14.1894 37.9554 14.096 37.9127 13.968C37.8967 13.9094 37.8861 13.8534 37.8807 13.8C37.8807 13.7467 37.8914 13.6907 37.9127 13.632C37.9607 13.4934 37.9927 13.392 38.0087 13.328C38.0301 13.264 38.0647 13.208 38.1127 13.16C38.1447 13.128 38.1847 13.096 38.2327 13.064C38.2807 13.032 38.3474 12.992 38.4327 12.944C38.4434 12.9334 38.4541 12.9254 38.4647 12.92C38.4754 12.9147 38.4861 12.912 38.4967 12.912C38.5874 12.9014 38.6861 12.888 38.7927 12.872C38.8994 12.8507 38.9981 12.8454 39.0887 12.856C39.1581 12.8614 39.2247 12.864 39.2887 12.864C39.3527 12.864 39.4194 12.864 39.4887 12.864C39.5794 12.9067 39.6487 12.9574 39.6967 13.016C39.7447 13.0747 39.7687 13.1574 39.7687 13.264C39.7687 13.3654 39.7501 13.52 39.7127 13.728C39.6754 13.9307 39.6274 14.1494 39.5687 14.384C39.5154 14.6187 39.4594 14.8347 39.4007 15.032C39.3474 15.2294 39.3021 15.376 39.2647 15.472C39.2754 15.52 39.2701 15.5707 39.2487 15.624C39.2327 15.672 39.2221 15.72 39.2167 15.768C39.2114 15.848 39.1927 15.9014 39.1607 15.928C39.1287 15.9494 39.0834 15.9734 39.0247 16Z" fill="#E19595"/>
<path d="M35.8827 15.9761C35.8027 15.9761 35.7013 15.9707 35.5787 15.9601C35.4613 15.9494 35.36 15.8747 35.2747 15.7361C35.2213 15.6454 35.1813 15.5414 35.1547 15.4241C35.1333 15.3067 35.1333 15.2241 35.1547 15.1761C35.2293 14.7654 35.288 14.4827 35.3307 14.3281C35.3733 14.1734 35.3973 14.0854 35.4027 14.0641C35.4133 14.0427 35.4347 13.9921 35.4667 13.9121C35.504 13.8267 35.5253 13.7734 35.5307 13.7521C35.5573 13.6667 35.5653 13.5707 35.5547 13.4641C35.5493 13.4214 35.552 13.3841 35.5627 13.3521C35.5787 13.3147 35.6027 13.2827 35.6347 13.2561C35.7253 13.1867 35.7973 13.0961 35.8507 12.9841C35.8667 12.9467 35.896 12.8827 35.9387 12.7921C35.9867 12.6961 36.0347 12.6027 36.0827 12.5121C36.136 12.4161 36.176 12.3494 36.2027 12.3121C36.288 12.2054 36.3653 12.0934 36.4347 11.9761C36.5093 11.8534 36.6 11.7467 36.7067 11.6561C36.776 11.5387 36.864 11.4321 36.9707 11.3361C37.0773 11.2347 37.184 11.1414 37.2907 11.0561C37.3973 10.9707 37.4827 10.8961 37.5467 10.8321C37.5733 10.8054 37.6453 10.7814 37.7627 10.7601C37.8853 10.7334 37.984 10.7094 38.0587 10.6881C38.0907 10.6721 38.152 10.6854 38.2427 10.7281C38.3333 10.7654 38.3973 10.8081 38.4347 10.8561C38.504 10.9734 38.544 11.0694 38.5547 11.1441C38.5707 11.2187 38.56 11.3067 38.5227 11.4081C38.4907 11.5041 38.4267 11.6534 38.3307 11.8561C38.224 12.0694 38.072 12.2721 37.8747 12.4641C37.6827 12.6507 37.4853 12.8134 37.2827 12.9521C37.1813 13.0427 37.0747 13.1254 36.9627 13.2001C36.856 13.2747 36.7467 13.3414 36.6347 13.4001C36.5653 13.4374 36.4933 13.4721 36.4187 13.5041C36.3493 13.5361 36.2773 13.5654 36.2027 13.5921C36.1653 13.6027 36.1307 13.6241 36.0987 13.6561C36.0667 13.6827 36.04 13.7227 36.0187 13.7761C35.9867 13.8507 35.968 13.9147 35.9627 13.9681C35.9627 14.0161 35.9467 14.0561 35.9147 14.0881C35.8987 14.1041 35.8747 14.1681 35.8427 14.2801C35.816 14.3867 35.784 14.5147 35.7467 14.6641C35.7147 14.8081 35.688 14.9441 35.6667 15.0721C35.6453 15.1947 35.6373 15.2774 35.6427 15.3201C35.648 15.3467 35.6533 15.3761 35.6587 15.4081C35.6693 15.4347 35.6933 15.4561 35.7307 15.4721C35.8107 15.4561 35.8747 15.4294 35.9227 15.3921C35.9707 15.3494 36.024 15.2934 36.0827 15.2241C36.1467 15.1441 36.2053 15.0587 36.2587 14.9681C36.3173 14.8774 36.3653 14.7841 36.4027 14.6881C36.424 14.6294 36.44 14.5681 36.4507 14.5041C36.4613 14.4347 36.48 14.3734 36.5067 14.3201C36.5067 14.1974 36.504 14.1067 36.4987 14.0481C36.4987 13.9841 36.4933 13.9334 36.4827 13.8961C36.4773 13.8534 36.464 13.8054 36.4427 13.7521C36.4853 13.7254 36.5093 13.7041 36.5147 13.6881C36.5253 13.6721 36.5493 13.6694 36.5867 13.6801C36.656 13.6961 36.72 13.7227 36.7787 13.7601C36.8427 13.7974 36.904 13.8454 36.9627 13.9041C36.984 13.9254 36.9973 13.9467 37.0027 13.9681C37.008 13.9894 37.0053 14.0134 36.9947 14.0401C36.9893 14.1041 36.9813 14.1681 36.9707 14.2321C36.9653 14.2907 36.9627 14.3494 36.9627 14.4081C36.9253 14.4774 36.9013 14.5521 36.8907 14.6321C36.88 14.7067 36.8613 14.7814 36.8347 14.8561C36.8027 14.9254 36.7707 14.9947 36.7387 15.0641C36.7067 15.1334 36.6693 15.1974 36.6267 15.2561C36.5627 15.3734 36.488 15.4774 36.4027 15.5681C36.3227 15.6587 36.2373 15.7414 36.1467 15.8161L35.8827 15.9761ZM36.2507 13.0241C36.3147 13.0347 36.36 13.0374 36.3867 13.0321C36.4187 13.0214 36.4507 12.9947 36.4827 12.9521C36.7333 12.7867 36.9627 12.6241 37.1707 12.4641C37.3787 12.2987 37.552 12.1414 37.6907 11.9921C37.8347 11.8374 37.928 11.7014 37.9707 11.5841C37.9973 11.5254 38.0267 11.4694 38.0587 11.4161C38.096 11.3627 38.12 11.3014 38.1307 11.2321L38.0987 11.0081C37.9493 11.0774 37.8293 11.1414 37.7387 11.2001C37.6533 11.2587 37.5413 11.3574 37.4027 11.4961C37.3493 11.5494 37.2693 11.6401 37.1627 11.7681C37.0613 11.8907 36.9493 12.0294 36.8267 12.1841C36.704 12.3387 36.5893 12.4907 36.4827 12.6401C36.3813 12.7894 36.304 12.9174 36.2507 13.0241Z" fill="#E19595"/>
<path d="M33.3543 15.792C33.285 15.824 33.205 15.8374 33.1143 15.832C33.0236 15.8267 32.901 15.7974 32.7463 15.744C32.7356 15.744 32.7116 15.7334 32.6743 15.712C32.6423 15.6907 32.6076 15.664 32.5703 15.632C32.5383 15.5947 32.5116 15.5547 32.4903 15.512C32.405 15.3894 32.3703 15.208 32.3863 14.968C32.4023 14.728 32.477 14.44 32.6103 14.104C32.6476 14.024 32.7036 13.9227 32.7783 13.8C32.8583 13.6774 32.9356 13.5654 33.0103 13.464C33.0903 13.3574 33.1463 13.296 33.1783 13.28C33.1783 13.28 33.2076 13.2694 33.2663 13.248C33.325 13.2267 33.3996 13.192 33.4903 13.144C33.517 13.1334 33.5463 13.1227 33.5783 13.112C33.6156 13.1014 33.653 13.0934 33.6903 13.088C33.7276 13.0827 33.7596 13.0827 33.7863 13.088C33.893 13.0934 34.0023 13.1334 34.1143 13.208C34.2316 13.2774 34.3276 13.36 34.4023 13.456C34.477 13.5467 34.501 13.6267 34.4743 13.696C34.4743 13.7067 34.4583 13.728 34.4263 13.76C34.3996 13.7867 34.3676 13.816 34.3303 13.848C34.2983 13.8747 34.2716 13.9014 34.2503 13.928C34.2236 13.96 34.1863 13.9734 34.1383 13.968C34.0956 13.9627 34.0556 13.9414 34.0183 13.904C33.9863 13.8614 33.9676 13.808 33.9623 13.744C33.9516 13.7014 33.9116 13.6614 33.8423 13.624C33.7783 13.5867 33.7463 13.568 33.7463 13.568C33.7036 13.568 33.6423 13.608 33.5623 13.688C33.4876 13.7627 33.413 13.8534 33.3383 13.96C33.2423 14.056 33.1596 14.1707 33.0903 14.304C33.021 14.432 32.965 14.5547 32.9223 14.672C32.885 14.784 32.8583 14.864 32.8423 14.912C32.821 14.9654 32.8183 15.04 32.8343 15.136C32.8503 15.232 32.869 15.2907 32.8903 15.312C32.9116 15.3227 32.965 15.3254 33.0503 15.32C33.141 15.3147 33.2476 15.304 33.3703 15.288C33.493 15.2667 33.613 15.2427 33.7303 15.216C33.8476 15.1894 33.9436 15.16 34.0183 15.128C34.1196 15.064 34.2076 15.0267 34.2823 15.016C34.357 15.0054 34.413 15.0054 34.4503 15.016C34.509 15.0374 34.5436 15.0667 34.5543 15.104C34.565 15.1414 34.5516 15.184 34.5143 15.232C34.477 15.2747 34.413 15.32 34.3223 15.368C34.237 15.4107 34.1596 15.4587 34.0903 15.512C34.0263 15.56 33.9943 15.5974 33.9943 15.624C33.973 15.624 33.949 15.632 33.9223 15.648C33.901 15.6587 33.8823 15.6614 33.8663 15.656C33.8556 15.656 33.813 15.664 33.7383 15.68C33.6636 15.696 33.5863 15.7147 33.5063 15.736C33.4316 15.7574 33.381 15.776 33.3543 15.792Z" fill="#E19595"/>
<path d="M59.6819 5.96006C59.6179 5.96006 59.5619 5.95206 59.5139 5.93606C59.4712 5.91473 59.4365 5.88806 59.4099 5.85606C59.3885 5.81873 59.3672 5.7814 59.3459 5.74406C59.3245 5.7014 59.3059 5.65606 59.2899 5.60806C59.3005 5.5654 59.3245 5.52273 59.3619 5.48006C59.3992 5.4374 59.4499 5.43473 59.5139 5.47206C59.5245 5.47206 59.5352 5.4774 59.5459 5.48806C59.5565 5.49873 59.5699 5.5094 59.5859 5.52006C59.7832 5.4294 59.9432 5.31206 60.0659 5.16806C60.1939 5.01873 60.3165 4.8534 60.4339 4.67206C60.3432 4.6454 60.2525 4.60273 60.1619 4.54406C60.0765 4.4854 60.0152 4.42406 59.9779 4.36006C59.9245 4.27473 59.8899 4.1734 59.8739 4.05606C59.8579 3.93873 59.8445 3.87473 59.8339 3.86406C59.8819 3.7574 59.9112 3.66673 59.9219 3.59206C59.9379 3.5174 59.9592 3.4454 59.9859 3.37606C60.0125 3.3014 60.0632 3.21606 60.1379 3.12006C60.1965 3.0454 60.2685 2.97606 60.3539 2.91206C60.4392 2.84273 60.5219 2.78673 60.6019 2.74406C60.6819 2.7014 60.7405 2.68006 60.7779 2.68006C60.8365 2.7014 60.8925 2.69873 60.9459 2.67206C60.9992 2.6454 61.0525 2.64273 61.1059 2.66406C61.1272 2.6694 61.1459 2.67206 61.1619 2.67206C61.1832 2.66673 61.1992 2.66673 61.2099 2.67206C61.3432 2.69873 61.4605 2.73606 61.5619 2.78406C61.6632 2.83206 61.7299 2.92006 61.7619 3.04806C61.7352 3.16006 61.7059 3.27206 61.6739 3.38406C61.6472 3.49073 61.6045 3.5974 61.5459 3.70406C61.4925 3.8054 61.4392 3.91206 61.3859 4.02406C61.3379 4.13073 61.2765 4.23206 61.2019 4.32806L61.2179 4.37606C61.2765 4.38673 61.3485 4.40006 61.4339 4.41606C61.5245 4.42673 61.5725 4.43206 61.5779 4.43206C61.6365 4.44806 61.6872 4.47473 61.7299 4.51206C61.7779 4.54406 61.8285 4.5814 61.8819 4.62406C61.8872 4.6454 61.8872 4.66673 61.8819 4.68806C61.8765 4.7094 61.8659 4.7334 61.8499 4.76006C61.7912 4.8774 61.7299 4.9974 61.6659 5.12006C61.6019 5.2374 61.5405 5.3574 61.4819 5.48006C61.4605 5.5334 61.4419 5.60006 61.4259 5.68006C61.4099 5.76006 61.3885 5.82406 61.3619 5.87206C61.3139 5.92006 61.2819 5.9494 61.2659 5.96006C61.2552 5.9654 61.2445 5.96273 61.2339 5.95206C61.2232 5.9414 61.1939 5.93606 61.1459 5.93606C61.0712 5.92006 61.0205 5.88006 60.9939 5.81606C60.9832 5.77873 60.9672 5.74406 60.9459 5.71206C60.9299 5.68006 60.9272 5.64273 60.9379 5.60006C60.9485 5.56806 60.9592 5.53873 60.9699 5.51206C60.9805 5.48006 60.9939 5.45073 61.0099 5.42406C61.0525 5.33873 61.0899 5.2534 61.1219 5.16806C61.1539 5.08273 61.1885 5.00006 61.2259 4.92006C61.2472 4.89873 61.2579 4.8694 61.2579 4.83206H61.2019C61.1699 4.82673 61.1325 4.8214 61.0899 4.81606C61.0525 4.8054 61.0099 4.7974 60.9619 4.79206C60.9352 4.8134 60.9032 4.8374 60.8659 4.86406C60.8285 4.8854 60.7992 4.9254 60.7779 4.98406C60.7192 5.04806 60.6632 5.12006 60.6099 5.20006C60.5619 5.27473 60.5032 5.34673 60.4339 5.41606C60.3645 5.4854 60.2952 5.55473 60.2259 5.62406C60.1619 5.6934 60.0899 5.76273 60.0099 5.83206C59.8925 5.9174 59.7832 5.96006 59.6819 5.96006ZM60.6419 4.29606C60.6685 4.29073 60.7059 4.25873 60.7539 4.20006C60.8072 4.13606 60.8605 4.06673 60.9139 3.99206C60.9725 3.91206 61.0232 3.84006 61.0659 3.77606C61.1085 3.70673 61.1325 3.66406 61.1379 3.64806C61.1379 3.65873 61.1485 3.63473 61.1699 3.57606C61.1912 3.5174 61.2152 3.44806 61.2419 3.36806C61.2739 3.28806 61.3032 3.2134 61.3299 3.14406C61.3565 3.07473 61.3699 3.0374 61.3699 3.03206C61.3005 2.98406 61.2445 2.96006 61.2019 2.96006C61.1592 2.96006 61.1085 2.97073 61.0499 2.99206C60.8525 3.0454 60.6899 3.13606 60.5619 3.26406C60.4339 3.38673 60.3405 3.54673 60.2819 3.74406C60.2392 3.9254 60.2499 4.0774 60.3139 4.20006C60.3832 4.3174 60.4925 4.3494 60.6419 4.29606Z" fill="#E19595"/>
<path d="M57.0349 5.84802C56.9975 5.82669 56.9575 5.81336 56.9149 5.80802C56.8775 5.80269 56.8375 5.79736 56.7949 5.79202C56.7575 5.75469 56.7255 5.71736 56.6989 5.68002C56.6775 5.63736 56.6615 5.58936 56.6509 5.53602C56.6455 5.50402 56.6509 5.47469 56.6669 5.44802C56.6829 5.42136 56.6989 5.39736 56.7149 5.37602C56.7309 5.37602 56.7495 5.37869 56.7709 5.38402C56.7922 5.38402 56.8135 5.38402 56.8349 5.38402C56.9255 5.31469 57.0055 5.24002 57.0749 5.16002C57.1495 5.07469 57.2215 4.98669 57.2909 4.89602C57.3655 4.79469 57.4322 4.69336 57.4909 4.59202C57.5495 4.48536 57.5975 4.37336 57.6349 4.25602C57.6509 4.20802 57.6615 4.16002 57.6669 4.11202C57.6722 4.05869 57.6855 4.01069 57.7069 3.96802C57.7389 3.90402 57.7629 3.84002 57.7789 3.77602C57.8002 3.70669 57.8215 3.64002 57.8429 3.57602C57.7629 3.56002 57.7015 3.54935 57.6589 3.54402C57.6215 3.53335 57.5869 3.51469 57.5549 3.48802C57.5229 3.46136 57.4775 3.42136 57.4189 3.36802C57.4135 3.29336 57.4215 3.24002 57.4429 3.20802C57.4642 3.17069 57.5149 3.14136 57.5949 3.12002C57.6269 3.10936 57.6589 3.10135 57.6909 3.09602C57.7229 3.08535 57.7549 3.08002 57.7869 3.08002C57.8455 3.07469 57.9042 3.07202 57.9629 3.07202C58.0215 3.07202 58.0829 3.07469 58.1469 3.08002C58.1895 3.08536 58.2322 3.09336 58.2749 3.10402C58.3175 3.11469 58.3602 3.12535 58.4029 3.13602C58.4509 3.15202 58.4989 3.17336 58.5469 3.20002C58.5949 3.22136 58.6429 3.24002 58.6909 3.25602C58.7282 3.26135 58.7629 3.27469 58.7949 3.29602C58.8269 3.31735 58.8615 3.34136 58.8989 3.36802C58.9949 3.42669 59.0695 3.50136 59.1229 3.59202C59.1762 3.67736 59.2029 3.77336 59.2029 3.88002C59.2029 4.04536 59.1789 4.20002 59.1309 4.34402C59.1042 4.44536 59.0749 4.54669 59.0429 4.64802C59.0162 4.74936 58.9869 4.85069 58.9549 4.95202C58.9335 5.02135 58.9122 5.08802 58.8909 5.15202C58.8695 5.21602 58.8535 5.28269 58.8429 5.35202C58.8322 5.41069 58.8242 5.47202 58.8189 5.53602C58.8135 5.60002 58.8055 5.66669 58.7949 5.73602C58.7735 5.74136 58.7522 5.74669 58.7309 5.75202C58.7149 5.75736 58.6935 5.76536 58.6669 5.77602C58.6082 5.75469 58.5469 5.73336 58.4829 5.71202C58.4189 5.68536 58.3735 5.62936 58.3469 5.54402C58.3469 5.53336 58.3469 5.52269 58.3469 5.51202C58.3522 5.49602 58.3549 5.47736 58.3549 5.45602C58.3549 5.44002 58.3549 5.42402 58.3549 5.40802C58.3549 5.39202 58.3549 5.37602 58.3549 5.36002C58.3655 5.26402 58.3815 5.17069 58.4029 5.08002C58.4242 4.98402 58.4509 4.89069 58.4829 4.80002C58.5255 4.69336 58.5602 4.58936 58.5869 4.48802C58.6135 4.38136 58.6402 4.27735 58.6669 4.17602C58.6829 4.12802 58.6935 4.08002 58.6989 4.03202C58.7095 3.97869 58.7175 3.92802 58.7229 3.88002C58.7282 3.82136 58.7149 3.75469 58.6829 3.68002C58.6295 3.63736 58.5735 3.60535 58.5149 3.58402C58.4562 3.55735 58.3922 3.53869 58.3229 3.52802C58.3122 3.56536 58.2935 3.60535 58.2669 3.64802C58.2615 3.65869 58.2589 3.67469 58.2589 3.69602C58.2589 3.71202 58.2535 3.72269 58.2429 3.72802C58.2109 3.74935 58.1895 3.77869 58.1789 3.81602C58.1735 3.84802 58.1682 3.88269 58.1629 3.92002C58.1575 3.94669 58.1495 3.97336 58.1389 4.00002C58.1282 4.02669 58.1149 4.05336 58.0989 4.08002C58.0775 4.10136 58.0642 4.13069 58.0589 4.16802C58.0535 4.20002 58.0482 4.23469 58.0429 4.27202C58.0322 4.35202 58.0135 4.42935 57.9869 4.50402C57.9602 4.57869 57.9255 4.66136 57.8829 4.75202C57.8562 4.78936 57.8322 4.82936 57.8109 4.87202C57.7895 4.90936 57.7682 4.94936 57.7469 4.99202C57.7415 5.01336 57.7309 5.03469 57.7149 5.05602C57.6989 5.07202 57.6855 5.09336 57.6749 5.12002C57.6482 5.17336 57.6189 5.22936 57.5869 5.28802C57.5549 5.34136 57.5175 5.38936 57.4749 5.43202C57.4055 5.50136 57.3362 5.57336 57.2669 5.64802C57.2029 5.72269 57.1255 5.78936 57.0349 5.84802Z" fill="#E19595"/>
<path d="M55.1345 5.95202C55.1185 5.95736 55.0812 5.94936 55.0225 5.92802C54.9639 5.90136 54.8999 5.86936 54.8305 5.83202C54.7665 5.78936 54.7159 5.74936 54.6785 5.71202C54.6359 5.65869 54.5959 5.60536 54.5585 5.55202C54.5265 5.49336 54.5105 5.42669 54.5105 5.35203C54.4732 5.27203 54.4519 5.18936 54.4465 5.10402C54.4465 5.01336 54.4439 4.92536 54.4385 4.84002C54.4332 4.70669 54.4625 4.57069 54.5265 4.43202C54.5905 4.28802 54.6412 4.18136 54.6785 4.11202C54.7052 4.03736 54.7585 3.94136 54.8385 3.82402C54.9239 3.70136 55.0279 3.58136 55.1505 3.46402C55.2732 3.34669 55.4012 3.25602 55.5345 3.19202C55.6199 3.14936 55.7052 3.11469 55.7905 3.08802C55.8812 3.05602 55.9852 3.06136 56.1025 3.10402C56.1612 3.12002 56.2039 3.14136 56.2305 3.16803C56.2572 3.19469 56.2865 3.22136 56.3185 3.24802C56.3612 3.21602 56.3959 3.13869 56.4225 3.01602C56.4545 2.88802 56.4732 2.74402 56.4785 2.58402C56.4892 2.41869 56.4812 2.26136 56.4545 2.11202C56.4332 1.95736 56.3879 1.83469 56.3185 1.74402C56.1905 1.56802 56.0492 1.45336 55.8945 1.40002C55.7399 1.34669 55.5639 1.36269 55.3665 1.44802C55.3025 1.42136 55.2439 1.37069 55.1905 1.29602C55.1425 1.22136 55.1292 1.14669 55.1505 1.07202C55.1932 1.03469 55.2465 0.997358 55.3105 0.960024C55.3745 0.922691 55.4385 0.898691 55.5025 0.888024C55.5772 0.872024 55.6519 0.861358 55.7265 0.856025C55.8065 0.850691 55.8892 0.872024 55.9745 0.920024C56.2519 1.01069 56.4599 1.13869 56.5985 1.30402C56.7425 1.46402 56.8412 1.65869 56.8945 1.88802C56.9479 2.11736 56.9799 2.38136 56.9905 2.68002C57.0012 2.76536 57.0039 2.84269 56.9985 2.91202C56.9985 2.97602 56.9905 3.08536 56.9745 3.24002C56.9212 3.30936 56.8999 3.39202 56.9105 3.48802C56.9265 3.57869 56.9159 3.66402 56.8785 3.74402C56.8732 3.83469 56.8519 3.90936 56.8145 3.96802C56.7772 4.02669 56.7585 4.08269 56.7585 4.13602C56.6625 4.40269 56.5319 4.66402 56.3665 4.92002C56.2065 5.17602 56.0225 5.39736 55.8145 5.58402C55.6065 5.77069 55.3799 5.89336 55.1345 5.95202ZM55.0865 5.43202C55.1399 5.45336 55.2199 5.43202 55.3265 5.36802C55.4332 5.29869 55.5425 5.20802 55.6545 5.09602C55.7665 4.97869 55.8599 4.86669 55.9345 4.76003C55.9612 4.72269 55.9959 4.66136 56.0385 4.57603C56.0865 4.49069 56.1292 4.40802 56.1665 4.32802C56.2092 4.24802 56.2332 4.19736 56.2385 4.17602C56.2865 4.04269 56.3132 3.91736 56.3185 3.80002C56.3292 3.67736 56.3159 3.59736 56.2785 3.56002C56.2199 3.49069 56.1239 3.47469 55.9905 3.51202C55.8625 3.54936 55.7399 3.61069 55.6225 3.69602C55.5372 3.76002 55.4599 3.84536 55.3905 3.95202C55.3265 4.05336 55.2599 4.14669 55.1905 4.23202C55.1959 4.26936 55.1852 4.30136 55.1585 4.32802C55.1372 4.35469 55.1132 4.38136 55.0865 4.40802C55.0172 4.54136 54.9719 4.66669 54.9505 4.78402C54.9292 4.89602 54.9185 4.96536 54.9185 4.99202C54.9185 5.07736 54.9319 5.16536 54.9585 5.25602C54.9852 5.34669 55.0279 5.40536 55.0865 5.43202Z" fill="#E19595"/>
<path d="M49.6025 5.89607C49.4212 5.94407 49.2932 5.96807 49.2185 5.96807C49.1439 5.96807 49.0639 5.93074 48.9785 5.85607C48.9519 5.8294 48.9359 5.80274 48.9305 5.77607C48.9252 5.74407 48.9119 5.7254 48.8905 5.72007C48.8852 5.68274 48.8879 5.6534 48.8985 5.63207C48.9145 5.6054 48.9492 5.5814 49.0025 5.56007C49.0825 5.60807 49.1839 5.6214 49.3065 5.60007C49.4292 5.57874 49.5492 5.5334 49.6665 5.46407C49.7892 5.3894 49.8852 5.3014 49.9545 5.20007C50.0612 5.07207 50.1439 4.95207 50.2025 4.84007C50.2612 4.72274 50.2932 4.61874 50.2985 4.52807C50.2985 4.47474 50.2905 4.4374 50.2745 4.41607C50.2639 4.3894 50.2372 4.3494 50.1945 4.29607C50.0985 4.32807 50.0105 4.3654 49.9305 4.40807C49.8559 4.45074 49.7945 4.49607 49.7465 4.54407C49.5865 4.6774 49.4612 4.78674 49.3705 4.87207C49.2852 4.9574 49.2105 5.04274 49.1465 5.12807C49.0879 5.2134 49.0132 5.32807 48.9225 5.47207C48.8799 5.5254 48.8399 5.5654 48.8025 5.59207C48.7705 5.61874 48.7359 5.63207 48.6985 5.63207C48.7145 5.73874 48.6772 5.80274 48.5865 5.82407C48.4692 5.7974 48.3839 5.76274 48.3305 5.72007C48.2772 5.67207 48.2612 5.5814 48.2825 5.44807C48.3039 5.3734 48.3252 5.2854 48.3465 5.18407C48.3679 5.0774 48.3919 4.9894 48.4185 4.92007C48.5465 4.57874 48.6585 4.27474 48.7545 4.00807C48.8559 3.7414 48.9439 3.55207 49.0185 3.44007L49.1945 2.98407C49.2852 2.9894 49.3545 3.00807 49.4025 3.04007C49.4505 3.06674 49.5065 3.1334 49.5705 3.24007C49.5705 3.26674 49.5439 3.34407 49.4905 3.47207C49.4425 3.59474 49.3839 3.73607 49.3145 3.89607C49.2505 4.05607 49.1892 4.2054 49.1305 4.34407C49.0772 4.4774 49.0399 4.57074 49.0185 4.62407C48.9972 4.68274 49.0132 4.67207 49.0665 4.59207C49.1252 4.51207 49.2265 4.41074 49.3705 4.28807C49.4399 4.21874 49.5252 4.15474 49.6265 4.09607C49.7279 4.03207 49.8132 3.98407 49.8825 3.95207C49.9572 3.92007 50.0185 3.9014 50.0665 3.89607C50.1145 3.89074 50.1492 3.8854 50.1705 3.88007C50.3039 3.88007 50.4105 3.91474 50.4905 3.98407C50.5705 4.04807 50.6265 4.12274 50.6585 4.20807C50.6959 4.2934 50.7145 4.36274 50.7145 4.41607C50.7305 4.5014 50.7412 4.58407 50.7465 4.66407C50.7572 4.73874 50.7519 4.81874 50.7305 4.90407C50.7145 4.94674 50.6852 5.0054 50.6425 5.08007C50.5999 5.15474 50.5492 5.23207 50.4905 5.31207C50.4372 5.38674 50.3732 5.44807 50.2985 5.49607C50.2505 5.54407 50.1865 5.59474 50.1065 5.64807C50.0265 5.7014 49.9412 5.75207 49.8505 5.80007C49.7652 5.84274 49.6825 5.87474 49.6025 5.89607ZM51.2665 6.02407C51.1705 6.0134 51.0905 5.98407 51.0265 5.93607C50.9679 5.88274 50.9252 5.8054 50.8985 5.70407C50.8985 5.6134 50.9092 5.53074 50.9305 5.45607C50.9572 5.37607 50.9785 5.29874 50.9945 5.22407C51.0212 5.1014 51.0585 4.97874 51.1065 4.85607C51.1545 4.7334 51.1972 4.61074 51.2345 4.48807C51.2665 4.4134 51.2932 4.3414 51.3145 4.27207C51.3359 4.20274 51.3572 4.1334 51.3785 4.06407C51.4052 3.97874 51.4319 3.89607 51.4585 3.81607C51.4852 3.73607 51.5119 3.65607 51.5385 3.57607C51.5599 3.50674 51.5759 3.43474 51.5865 3.36007C51.6025 3.2854 51.6159 3.21074 51.6265 3.13607C51.6852 3.07207 51.7492 3.0454 51.8185 3.05607C51.8932 3.06674 51.9839 3.12807 52.0905 3.24007C52.1172 3.30407 52.1305 3.36274 52.1305 3.41607C52.1305 3.46407 52.1172 3.51474 52.0905 3.56807C52.0692 3.61607 52.0399 3.68807 52.0025 3.78407C51.9705 3.88007 51.9359 3.97607 51.8985 4.07207C51.8665 4.16274 51.8425 4.23207 51.8265 4.28007C51.8159 4.33874 51.7865 4.43474 51.7385 4.56807C51.6959 4.7014 51.6505 4.84007 51.6025 4.98407C51.5545 5.12274 51.5199 5.23474 51.4985 5.32007C51.4665 5.40007 51.4425 5.4774 51.4265 5.55207C51.4105 5.62674 51.3945 5.72007 51.3785 5.83207C51.3892 5.88007 51.3812 5.92007 51.3545 5.95207C51.3332 5.97874 51.3039 6.00274 51.2665 6.02407Z" fill="#E19595"/>
<path d="M44.3802 5.60803C44.3215 5.5707 44.2682 5.5227 44.2202 5.46403C44.1722 5.40003 44.1482 5.32003 44.1482 5.22403C44.1482 5.1707 44.1589 5.08003 44.1802 4.95203C44.2015 4.82403 44.2309 4.68003 44.2682 4.52003C44.3055 4.36003 44.3429 4.2107 44.3802 4.07203C44.4335 3.97603 44.4789 3.88003 44.5162 3.78403C44.5535 3.68803 44.5722 3.62937 44.5722 3.60803C44.5829 3.54403 44.5962 3.46937 44.6122 3.38403C44.6335 3.2987 44.6549 3.22137 44.6762 3.15203C44.6975 3.0827 44.7135 3.0427 44.7242 3.03203C44.7509 3.00536 44.7829 2.98937 44.8202 2.98403C44.8575 2.97337 44.8949 2.9787 44.9322 3.00003C44.9749 3.01603 45.0069 3.0507 45.0282 3.10403C45.0869 3.16803 45.1162 3.24537 45.1162 3.33603C45.1162 3.42137 45.0869 3.54937 45.0282 3.72003C44.9802 3.8267 44.9322 3.95203 44.8842 4.09603C44.8362 4.24003 44.7935 4.37337 44.7562 4.49603C44.7242 4.61337 44.7055 4.69337 44.7002 4.73603L44.5402 4.78403C44.6309 4.6987 44.7162 4.6107 44.7962 4.52003C44.8762 4.42403 44.9349 4.34937 44.9722 4.29603C45.0629 4.17337 45.1402 4.07203 45.2042 3.99203C45.2735 3.9067 45.3615 3.80536 45.4682 3.68803C45.5749 3.56536 45.6789 3.4907 45.7802 3.46403C45.8869 3.43203 45.9695 3.41603 46.0282 3.41603C46.1455 3.43737 46.2389 3.4987 46.3082 3.60003C46.3829 3.69603 46.4309 3.84003 46.4522 4.03203C46.4522 4.1067 46.4442 4.1947 46.4282 4.29603C46.4175 4.39737 46.4122 4.44803 46.4122 4.44803C46.4122 4.44803 46.4549 4.39203 46.5402 4.28003C46.6309 4.16803 46.7509 4.04536 46.9002 3.91203C47.0015 3.83736 47.1002 3.7947 47.1962 3.78403C47.2922 3.76803 47.3775 3.80003 47.4522 3.88003C47.5909 3.9547 47.6815 4.06937 47.7242 4.22403C47.7669 4.37337 47.7775 4.56537 47.7562 4.80003C47.7402 4.9387 47.7375 5.0427 47.7482 5.11203C47.7589 5.17603 47.7749 5.24003 47.7962 5.30403C47.8389 5.32537 47.8469 5.3707 47.8202 5.44003C47.7935 5.50403 47.7615 5.53603 47.7242 5.53603C47.6709 5.53603 47.6095 5.52537 47.5402 5.50403C47.4762 5.4827 47.4175 5.44803 47.3642 5.40003C47.3162 5.3467 47.2922 5.2747 47.2922 5.18403V4.68803C47.2922 4.5707 47.2869 4.4747 47.2762 4.40003C47.2709 4.32537 47.2575 4.28003 47.2362 4.26403C47.1775 4.23203 47.0922 4.2667 46.9802 4.36803C46.8682 4.46937 46.7482 4.60537 46.6202 4.77603C46.4922 4.9467 46.3722 5.1227 46.2602 5.30403C46.1589 5.46937 46.0949 5.56537 46.0682 5.59203C46.0469 5.61337 46.0069 5.60537 45.9482 5.56803C45.8309 5.5307 45.7562 5.48003 45.7242 5.41603C45.6975 5.3467 45.6949 5.26937 45.7162 5.18403C45.7429 5.09337 45.7749 4.9707 45.8122 4.81603C45.8549 4.66137 45.8949 4.51203 45.9322 4.36803C45.9695 4.2187 45.9935 4.11203 46.0042 4.04803C45.9829 4.00537 45.9455 3.99203 45.8922 4.00803C45.8442 4.0187 45.7935 4.0427 45.7402 4.08003C45.6762 4.1227 45.5989 4.2027 45.5082 4.32003C45.4175 4.43736 45.3242 4.57336 45.2282 4.72803C45.1642 4.82937 45.0975 4.9307 45.0282 5.03203C44.9589 5.12803 44.8949 5.21337 44.8362 5.28803C44.7775 5.3627 44.7269 5.4187 44.6842 5.45603C44.6095 5.57337 44.5589 5.63737 44.5322 5.64803C44.5055 5.6587 44.4549 5.64537 44.3802 5.60803Z" fill="#E19595"/>
<path d="M41.3056 5.89607C41.1243 5.94407 40.9963 5.96807 40.9216 5.96807C40.847 5.96807 40.767 5.93074 40.6816 5.85607C40.655 5.8294 40.639 5.80274 40.6336 5.77607C40.6283 5.74407 40.615 5.7254 40.5936 5.72007C40.5883 5.68274 40.591 5.6534 40.6016 5.63207C40.6176 5.6054 40.6523 5.5814 40.7056 5.56007C40.7856 5.60807 40.887 5.6214 41.0096 5.60007C41.1323 5.57874 41.2523 5.5334 41.3696 5.46407C41.4923 5.3894 41.5883 5.3014 41.6576 5.20007C41.7643 5.07207 41.847 4.95207 41.9056 4.84007C41.9643 4.72274 41.9963 4.61874 42.0016 4.52807C42.0016 4.47474 41.9936 4.4374 41.9776 4.41607C41.967 4.3894 41.9403 4.3494 41.8976 4.29607C41.8016 4.32807 41.7136 4.3654 41.6336 4.40807C41.559 4.45074 41.4976 4.49607 41.4496 4.54407C41.2896 4.6774 41.1643 4.78674 41.0736 4.87207C40.9883 4.9574 40.9136 5.04274 40.8496 5.12807C40.791 5.2134 40.7163 5.32807 40.6256 5.47207C40.583 5.5254 40.543 5.5654 40.5056 5.59207C40.4736 5.61874 40.439 5.63207 40.4016 5.63207C40.4176 5.73874 40.3803 5.80274 40.2896 5.82407C40.1723 5.7974 40.087 5.76274 40.0336 5.72007C39.9803 5.67207 39.9643 5.5814 39.9856 5.44807C40.007 5.3734 40.0283 5.2854 40.0496 5.18407C40.071 5.0774 40.095 4.9894 40.1216 4.92007C40.2496 4.57874 40.3616 4.27474 40.4576 4.00807C40.559 3.7414 40.647 3.55207 40.7216 3.44007L40.8976 2.98407C40.9883 2.9894 41.0576 3.00807 41.1056 3.04007C41.1536 3.06674 41.2096 3.1334 41.2736 3.24007C41.2736 3.26674 41.247 3.34407 41.1936 3.47207C41.1456 3.59474 41.087 3.73607 41.0176 3.89607C40.9536 4.05607 40.8923 4.2054 40.8336 4.34407C40.7803 4.4774 40.743 4.57074 40.7216 4.62407C40.7003 4.68274 40.7163 4.67207 40.7696 4.59207C40.8283 4.51207 40.9296 4.41074 41.0736 4.28807C41.143 4.21874 41.2283 4.15474 41.3296 4.09607C41.431 4.03207 41.5163 3.98407 41.5856 3.95207C41.6603 3.92007 41.7216 3.9014 41.7696 3.89607C41.8176 3.89074 41.8523 3.8854 41.8736 3.88007C42.007 3.88007 42.1136 3.91474 42.1936 3.98407C42.2736 4.04807 42.3296 4.12274 42.3616 4.20807C42.399 4.2934 42.4176 4.36274 42.4176 4.41607C42.4336 4.5014 42.4443 4.58407 42.4496 4.66407C42.4603 4.73874 42.455 4.81874 42.4336 4.90407C42.4176 4.94674 42.3883 5.0054 42.3456 5.08007C42.303 5.15474 42.2523 5.23207 42.1936 5.31207C42.1403 5.38674 42.0763 5.44807 42.0016 5.49607C41.9536 5.54407 41.8896 5.59474 41.8096 5.64807C41.7296 5.7014 41.6443 5.75207 41.5536 5.80007C41.4683 5.84274 41.3856 5.87474 41.3056 5.89607ZM42.9696 6.02407C42.8736 6.0134 42.7936 5.98407 42.7296 5.93607C42.671 5.88274 42.6283 5.8054 42.6016 5.70407C42.6016 5.6134 42.6123 5.53074 42.6336 5.45607C42.6603 5.37607 42.6816 5.29874 42.6976 5.22407C42.7243 5.1014 42.7616 4.97874 42.8096 4.85607C42.8576 4.7334 42.9003 4.61074 42.9376 4.48807C42.9696 4.4134 42.9963 4.3414 43.0176 4.27207C43.039 4.20274 43.0603 4.1334 43.0816 4.06407C43.1083 3.97874 43.135 3.89607 43.1616 3.81607C43.1883 3.73607 43.215 3.65607 43.2416 3.57607C43.263 3.50674 43.279 3.43474 43.2896 3.36007C43.3056 3.2854 43.319 3.21074 43.3296 3.13607C43.3883 3.07207 43.4523 3.0454 43.5216 3.05607C43.5963 3.06674 43.687 3.12807 43.7936 3.24007C43.8203 3.30407 43.8336 3.36274 43.8336 3.41607C43.8336 3.46407 43.8203 3.51474 43.7936 3.56807C43.7723 3.61607 43.743 3.68807 43.7056 3.78407C43.6736 3.88007 43.639 3.97607 43.6016 4.07207C43.5696 4.16274 43.5456 4.23207 43.5296 4.28007C43.519 4.33874 43.4896 4.43474 43.4416 4.56807C43.399 4.7014 43.3536 4.84007 43.3056 4.98407C43.2576 5.12274 43.223 5.23474 43.2016 5.32007C43.1696 5.40007 43.1456 5.4774 43.1296 5.55207C43.1136 5.62674 43.0976 5.72007 43.0816 5.83207C43.0923 5.88007 43.0843 5.92007 43.0576 5.95207C43.0363 5.97874 43.007 6.00274 42.9696 6.02407Z" fill="#E19595"/>
<path d="M36.5222 7.78404C36.4848 7.76804 36.4448 7.74137 36.4022 7.70404C36.3595 7.66671 36.3248 7.62404 36.2982 7.57604C36.2715 7.53337 36.2582 7.49604 36.2582 7.46404C36.2582 7.43204 36.2715 7.34671 36.2982 7.20804C36.3248 7.07471 36.3595 6.90937 36.4022 6.71204C36.4502 6.52004 36.5008 6.32271 36.5542 6.12004C36.6128 5.92271 36.6715 5.74671 36.7302 5.59204C36.7408 5.56537 36.7755 5.47737 36.8342 5.32804C36.8982 5.17337 36.9595 4.98671 37.0182 4.76804C37.0608 4.62937 37.1168 4.47204 37.1862 4.29604C37.2555 4.12004 37.3275 3.94404 37.4022 3.76804C37.4768 3.58671 37.5382 3.42671 37.5862 3.28804C37.6342 3.14937 37.6742 3.03737 37.7062 2.95204C37.7435 2.86137 37.7648 2.80537 37.7702 2.78404C37.7808 2.75204 37.7968 2.72537 37.8182 2.70404C37.8448 2.67737 37.8715 2.65604 37.8982 2.64004C37.9248 2.61871 37.9462 2.60537 37.9622 2.60004C38.0582 2.57337 38.1408 2.61337 38.2102 2.72004C38.2368 2.76804 38.2422 2.82404 38.2262 2.88804C38.2102 2.95204 38.1808 3.03204 38.1382 3.12804L38.0822 3.28804L38.3702 3.22404C38.4182 3.22404 38.4768 3.22671 38.5462 3.23204C38.6208 3.23204 38.6928 3.23204 38.7622 3.23204C38.8315 3.23204 38.8822 3.23737 38.9142 3.24804C39.0422 3.25337 39.1302 3.27737 39.1782 3.32004C39.2315 3.36271 39.2768 3.41871 39.3142 3.48804C39.3408 3.51471 39.3728 3.55204 39.4102 3.60004C39.4475 3.64271 39.4688 3.68537 39.4742 3.72804C39.4955 3.81871 39.4955 3.91737 39.4742 4.02404C39.4582 4.12537 39.4262 4.22671 39.3782 4.32804C39.3355 4.42937 39.2768 4.52271 39.2022 4.60804C39.1328 4.68804 39.0582 4.75471 38.9782 4.80804C38.9248 4.82937 38.8768 4.85337 38.8342 4.88004C38.7915 4.90137 38.7702 4.91204 38.7702 4.91204C38.7648 4.93871 38.7062 4.98137 38.5942 5.04004C38.4822 5.09337 38.3542 5.14404 38.2102 5.19204C38.0662 5.24004 37.9408 5.27204 37.8342 5.28804C37.7968 5.29337 37.7435 5.29871 37.6742 5.30404C37.6048 5.30937 37.5515 5.30137 37.5142 5.28004C37.4555 5.26937 37.4155 5.26404 37.3942 5.26404C37.3728 5.26404 37.3622 5.27471 37.3622 5.29604C37.3568 5.30671 37.3195 5.41871 37.2502 5.63204C37.1808 5.84537 37.1088 6.09337 37.0342 6.37604C36.9328 6.68537 36.8502 6.93071 36.7862 7.11204C36.7222 7.29871 36.6715 7.43737 36.6342 7.52804C36.6022 7.61871 36.5782 7.68004 36.5622 7.71204C36.5462 7.74937 36.5328 7.77337 36.5222 7.78404ZM37.5222 4.83204C37.5382 4.86404 37.5888 4.87471 37.6742 4.86404C37.7648 4.84804 37.8715 4.81604 37.9942 4.76804C38.1222 4.71471 38.2475 4.65604 38.3702 4.59204C38.4928 4.52271 38.5942 4.45337 38.6742 4.38404C38.7915 4.25071 38.8875 4.12804 38.9622 4.01604C39.0368 3.89871 39.0475 3.82137 38.9942 3.78404C38.9355 3.69871 38.8262 3.65871 38.6662 3.66404C38.5062 3.66937 38.3088 3.73604 38.0742 3.86404C37.9835 3.89604 37.9142 3.93871 37.8662 3.99204C37.8235 4.04004 37.7862 4.10137 37.7542 4.17604C37.7222 4.25071 37.6822 4.34137 37.6342 4.44804C37.5862 4.56537 37.5542 4.65337 37.5382 4.71204C37.5222 4.77071 37.5168 4.81071 37.5222 4.83204Z" fill="#E19595"/>
<path d="M34.0483 5.96003C34.0057 5.94403 33.9603 5.91203 33.9123 5.86403C33.8643 5.8107 33.8243 5.74937 33.7923 5.68003C33.7603 5.6107 33.7443 5.5467 33.7443 5.48803C33.771 5.42937 33.8057 5.32803 33.8483 5.18403C33.891 5.0347 33.9443 4.86403 34.0083 4.67203C34.051 4.61337 34.083 4.54403 34.1043 4.46403C34.131 4.38403 34.155 4.31203 34.1763 4.24803C34.219 4.1627 34.2697 4.05337 34.3283 3.92003C34.387 3.78137 34.443 3.6427 34.4963 3.50403C34.555 3.36003 34.6057 3.24003 34.6483 3.14403C34.707 3.00537 34.7417 2.92003 34.7523 2.88803C34.763 2.8507 34.771 2.82137 34.7763 2.80003C34.7763 2.75737 34.787 2.7227 34.8083 2.69603C34.8297 2.66403 34.851 2.64803 34.8723 2.64803C34.8937 2.6267 34.9177 2.61603 34.9443 2.61603C34.9763 2.6107 35.003 2.60803 35.0243 2.60803C35.083 2.60803 35.1337 2.64803 35.1763 2.72803C35.219 2.8027 35.2403 2.87203 35.2403 2.93603C35.2403 3.00003 35.2163 3.0907 35.1683 3.20803C35.1257 3.32003 35.075 3.43737 35.0163 3.56003C34.963 3.6827 34.9177 3.78937 34.8803 3.88003C34.843 3.9707 34.8323 4.02403 34.8483 4.04003C34.8483 4.04003 34.8857 4.02403 34.9603 3.99203C35.035 3.9547 35.115 3.90403 35.2003 3.84003C35.259 3.80803 35.323 3.76803 35.3923 3.72003C35.4617 3.67203 35.5283 3.6267 35.5923 3.58403C35.6563 3.53603 35.7097 3.5067 35.7523 3.49603C35.8163 3.45337 35.883 3.41337 35.9523 3.37603C36.0217 3.33337 36.067 3.30137 36.0883 3.28003C36.179 3.23737 36.2457 3.22403 36.2883 3.24003C36.3363 3.25603 36.3843 3.29603 36.4323 3.36003C36.491 3.42937 36.5017 3.4907 36.4643 3.54403C36.427 3.59203 36.339 3.6587 36.2003 3.74403C36.0883 3.81337 35.9523 3.89603 35.7923 3.99203C35.6377 4.08803 35.499 4.17337 35.3763 4.24803C35.259 4.3227 35.1923 4.36803 35.1763 4.38403C35.1763 4.38403 35.1977 4.42403 35.2403 4.50403C35.283 4.58403 35.3257 4.65603 35.3683 4.72003C35.411 4.80537 35.4563 4.88537 35.5043 4.96003C35.5577 5.02937 35.5843 5.07737 35.5843 5.10403C35.627 5.21603 35.6803 5.30937 35.7443 5.38403C35.8083 5.45337 35.8803 5.4987 35.9603 5.52003C36.0457 5.53603 36.131 5.52537 36.2163 5.48803C36.323 5.44537 36.4003 5.43203 36.4483 5.44803C36.5017 5.46403 36.539 5.50403 36.5603 5.56803C36.5817 5.6107 36.587 5.6427 36.5763 5.66403C36.571 5.68003 36.5363 5.72003 36.4723 5.78403C36.371 5.88537 36.267 5.94937 36.1603 5.97603C36.059 6.0027 35.9657 5.9947 35.8803 5.95203C35.827 5.95203 35.7657 5.9307 35.6963 5.88803C35.627 5.84003 35.5417 5.7627 35.4403 5.65603C35.3443 5.54937 35.2243 5.40003 35.0803 5.20803C35.0803 5.1867 35.0697 5.15737 35.0483 5.12003C35.0323 5.07737 35.0137 5.03737 34.9923 5.00003C34.971 4.95737 34.9443 4.91203 34.9123 4.86403C34.8803 4.8107 34.8643 4.78403 34.8643 4.78403C34.8643 4.76803 34.859 4.7547 34.8483 4.74403C34.843 4.72803 34.8323 4.70937 34.8163 4.68803C34.8057 4.6667 34.7923 4.6427 34.7763 4.61603C34.691 4.58937 34.6297 4.60537 34.5923 4.66403C34.555 4.7227 34.515 4.78403 34.4723 4.84803C34.4457 4.91737 34.411 5.01603 34.3683 5.14403C34.331 5.2667 34.299 5.3867 34.2723 5.50403C34.251 5.62137 34.2457 5.70137 34.2563 5.74403C34.2563 5.82937 34.243 5.88803 34.2163 5.92003C34.1897 5.9467 34.1337 5.96003 34.0483 5.96003Z" fill="#E19595"/>
<path d="M30.138 5.60803C30.0793 5.5707 30.026 5.5227 29.978 5.46403C29.93 5.40003 29.906 5.32003 29.906 5.22403C29.906 5.1707 29.9167 5.08003 29.938 4.95203C29.9593 4.82403 29.9887 4.68003 30.026 4.52003C30.0633 4.36003 30.1007 4.2107 30.138 4.07203C30.1913 3.97603 30.2367 3.88003 30.274 3.78403C30.3113 3.68803 30.33 3.62937 30.33 3.60803C30.3407 3.54403 30.354 3.46937 30.37 3.38403C30.3913 3.2987 30.4127 3.22137 30.434 3.15203C30.4553 3.0827 30.4713 3.0427 30.482 3.03203C30.5087 3.00536 30.5407 2.98937 30.578 2.98403C30.6153 2.97337 30.6527 2.9787 30.69 3.00003C30.7327 3.01603 30.7647 3.0507 30.786 3.10403C30.8447 3.16803 30.874 3.24537 30.874 3.33603C30.874 3.42137 30.8447 3.54937 30.786 3.72003C30.738 3.8267 30.69 3.95203 30.642 4.09603C30.594 4.24003 30.5513 4.37337 30.514 4.49603C30.482 4.61337 30.4633 4.69337 30.458 4.73603L30.298 4.78403C30.3887 4.6987 30.474 4.6107 30.554 4.52003C30.634 4.42403 30.6927 4.34937 30.73 4.29603C30.8207 4.17337 30.898 4.07203 30.962 3.99203C31.0313 3.9067 31.1193 3.80536 31.226 3.68803C31.3327 3.56536 31.4367 3.4907 31.538 3.46403C31.6447 3.43203 31.7273 3.41603 31.786 3.41603C31.9033 3.43737 31.9967 3.4987 32.066 3.60003C32.1407 3.69603 32.1887 3.84003 32.21 4.03203C32.21 4.1067 32.202 4.1947 32.186 4.29603C32.1753 4.39737 32.17 4.44803 32.17 4.44803C32.17 4.44803 32.2127 4.39203 32.298 4.28003C32.3887 4.16803 32.5087 4.04536 32.658 3.91203C32.7593 3.83736 32.858 3.7947 32.954 3.78403C33.05 3.76803 33.1353 3.80003 33.21 3.88003C33.3487 3.9547 33.4393 4.06937 33.482 4.22403C33.5247 4.37337 33.5353 4.56537 33.514 4.80003C33.498 4.9387 33.4953 5.0427 33.506 5.11203C33.5167 5.17603 33.5327 5.24003 33.554 5.30403C33.5967 5.32537 33.6047 5.3707 33.578 5.44003C33.5513 5.50403 33.5193 5.53603 33.482 5.53603C33.4287 5.53603 33.3673 5.52537 33.298 5.50403C33.234 5.4827 33.1753 5.44803 33.122 5.40003C33.074 5.3467 33.05 5.2747 33.05 5.18403V4.68803C33.05 4.5707 33.0447 4.4747 33.034 4.40003C33.0287 4.32537 33.0153 4.28003 32.994 4.26403C32.9353 4.23203 32.85 4.2667 32.738 4.36803C32.626 4.46937 32.506 4.60537 32.378 4.77603C32.25 4.9467 32.13 5.1227 32.018 5.30403C31.9167 5.46937 31.8527 5.56537 31.826 5.59203C31.8047 5.61337 31.7647 5.60537 31.706 5.56803C31.5887 5.5307 31.514 5.48003 31.482 5.41603C31.4553 5.3467 31.4527 5.26937 31.474 5.18403C31.5007 5.09337 31.5327 4.9707 31.57 4.81603C31.6127 4.66137 31.6527 4.51203 31.69 4.36803C31.7273 4.2187 31.7513 4.11203 31.762 4.04803C31.7407 4.00537 31.7033 3.99203 31.65 4.00803C31.602 4.0187 31.5513 4.0427 31.498 4.08003C31.434 4.1227 31.3567 4.2027 31.266 4.32003C31.1753 4.43736 31.082 4.57336 30.986 4.72803C30.922 4.82937 30.8553 4.9307 30.786 5.03203C30.7167 5.12803 30.6527 5.21337 30.594 5.28803C30.5353 5.3627 30.4847 5.4187 30.442 5.45603C30.3673 5.57337 30.3167 5.63737 30.29 5.64803C30.2633 5.6587 30.2127 5.64537 30.138 5.60803Z" fill="#E19595"/>
<path d="M27.6137 5.88007C27.5444 5.88007 27.4884 5.86674 27.4457 5.84007C27.4084 5.8134 27.3604 5.77607 27.3017 5.72807C27.2004 5.6214 27.1284 5.52007 27.0857 5.42407C27.043 5.32274 27.0297 5.22674 27.0457 5.13607C27.0617 5.0934 27.067 5.0534 27.0617 5.01607C27.0617 4.9734 27.0617 4.95207 27.0617 4.95207C27.035 4.9254 27.027 4.9094 27.0377 4.90407C27.0484 4.8934 27.059 4.8774 27.0697 4.85607C27.1017 4.85607 27.1124 4.82674 27.1017 4.76807C27.091 4.7254 27.1124 4.63207 27.1657 4.48807C27.219 4.34407 27.2857 4.20807 27.3657 4.08007C27.3977 4.02674 27.4457 3.9574 27.5097 3.87207C27.5737 3.7814 27.643 3.6934 27.7177 3.60807C27.7977 3.5174 27.8697 3.4454 27.9337 3.39207C28.067 3.28007 28.1844 3.1974 28.2857 3.14407C28.387 3.09074 28.4964 3.05074 28.6137 3.02407C28.731 2.9974 28.811 2.98407 28.8537 2.98407C28.9017 2.98407 28.9657 3.02674 29.0457 3.11207C29.1684 3.1654 29.2564 3.2294 29.3097 3.30407C29.3684 3.37874 29.4057 3.48807 29.4217 3.63207C29.4377 3.79207 29.4244 3.97607 29.3817 4.18407C29.3444 4.38674 29.219 4.64007 29.0057 4.94407C28.8724 5.13607 28.7497 5.28007 28.6377 5.37607C28.5257 5.46674 28.3924 5.5574 28.2377 5.64807C28.1257 5.72274 28.0244 5.77874 27.9337 5.81607C27.843 5.84807 27.7364 5.8694 27.6137 5.88007ZM28.3817 5.03207C28.5097 4.88807 28.611 4.75207 28.6857 4.62407C28.7657 4.49607 28.8404 4.3334 28.9097 4.13607C28.931 4.0774 28.9444 4.0054 28.9497 3.92007C28.955 3.8294 28.9524 3.74674 28.9417 3.67207C28.9364 3.59207 28.9177 3.54674 28.8857 3.53607C28.8217 3.49874 28.7444 3.48807 28.6537 3.50407C28.563 3.51474 28.4644 3.5654 28.3577 3.65607C28.1924 3.79474 28.0484 3.96807 27.9257 4.17607C27.803 4.37874 27.683 4.61074 27.5657 4.87207C27.4857 5.06407 27.467 5.21874 27.5097 5.33607C27.5577 5.44807 27.6564 5.48807 27.8057 5.45607C27.9604 5.41874 28.1524 5.2774 28.3817 5.03207Z" fill="#E19595"/>
<path d="M22.3056 5.89607C22.1243 5.94407 21.9963 5.96807 21.9216 5.96807C21.847 5.96807 21.767 5.93074 21.6816 5.85607C21.655 5.8294 21.639 5.80274 21.6336 5.77607C21.6283 5.74407 21.615 5.7254 21.5936 5.72007C21.5883 5.68274 21.591 5.6534 21.6016 5.63207C21.6176 5.6054 21.6523 5.5814 21.7056 5.56007C21.7856 5.60807 21.887 5.6214 22.0096 5.60007C22.1323 5.57874 22.2523 5.5334 22.3696 5.46407C22.4923 5.3894 22.5883 5.3014 22.6576 5.20007C22.7643 5.07207 22.847 4.95207 22.9056 4.84007C22.9643 4.72274 22.9963 4.61874 23.0016 4.52807C23.0016 4.47474 22.9936 4.4374 22.9776 4.41607C22.967 4.3894 22.9403 4.3494 22.8976 4.29607C22.8016 4.32807 22.7136 4.3654 22.6336 4.40807C22.559 4.45074 22.4976 4.49607 22.4496 4.54407C22.2896 4.6774 22.1643 4.78674 22.0736 4.87207C21.9883 4.9574 21.9136 5.04274 21.8496 5.12807C21.791 5.2134 21.7163 5.32807 21.6256 5.47207C21.583 5.5254 21.543 5.5654 21.5056 5.59207C21.4736 5.61874 21.439 5.63207 21.4016 5.63207C21.4176 5.73874 21.3803 5.80274 21.2896 5.82407C21.1723 5.7974 21.087 5.76274 21.0336 5.72007C20.9803 5.67207 20.9643 5.5814 20.9856 5.44807C21.007 5.3734 21.0283 5.2854 21.0496 5.18407C21.071 5.0774 21.095 4.9894 21.1216 4.92007C21.2496 4.57874 21.3616 4.27474 21.4576 4.00807C21.559 3.7414 21.647 3.55207 21.7216 3.44007L21.8976 2.98407C21.9883 2.9894 22.0576 3.00807 22.1056 3.04007C22.1536 3.06674 22.2096 3.1334 22.2736 3.24007C22.2736 3.26674 22.247 3.34407 22.1936 3.47207C22.1456 3.59474 22.087 3.73607 22.0176 3.89607C21.9536 4.05607 21.8923 4.2054 21.8336 4.34407C21.7803 4.4774 21.743 4.57074 21.7216 4.62407C21.7003 4.68274 21.7163 4.67207 21.7696 4.59207C21.8283 4.51207 21.9296 4.41074 22.0736 4.28807C22.143 4.21874 22.2283 4.15474 22.3296 4.09607C22.431 4.03207 22.5163 3.98407 22.5856 3.95207C22.6603 3.92007 22.7216 3.9014 22.7696 3.89607C22.8176 3.89074 22.8523 3.8854 22.8736 3.88007C23.007 3.88007 23.1136 3.91474 23.1936 3.98407C23.2736 4.04807 23.3296 4.12274 23.3616 4.20807C23.399 4.2934 23.4176 4.36274 23.4176 4.41607C23.4336 4.5014 23.4443 4.58407 23.4496 4.66407C23.4603 4.73874 23.455 4.81874 23.4336 4.90407C23.4176 4.94674 23.3883 5.0054 23.3456 5.08007C23.303 5.15474 23.2523 5.23207 23.1936 5.31207C23.1403 5.38674 23.0763 5.44807 23.0016 5.49607C22.9536 5.54407 22.8896 5.59474 22.8096 5.64807C22.7296 5.7014 22.6443 5.75207 22.5536 5.80007C22.4683 5.84274 22.3856 5.87474 22.3056 5.89607ZM23.9696 6.02407C23.8736 6.0134 23.7936 5.98407 23.7296 5.93607C23.671 5.88274 23.6283 5.8054 23.6016 5.70407C23.6016 5.6134 23.6123 5.53074 23.6336 5.45607C23.6603 5.37607 23.6816 5.29874 23.6976 5.22407C23.7243 5.1014 23.7616 4.97874 23.8096 4.85607C23.8576 4.7334 23.9003 4.61074 23.9376 4.48807C23.9696 4.4134 23.9963 4.3414 24.0176 4.27207C24.039 4.20274 24.0603 4.1334 24.0816 4.06407C24.1083 3.97874 24.135 3.89607 24.1616 3.81607C24.1883 3.73607 24.215 3.65607 24.2416 3.57607C24.263 3.50674 24.279 3.43474 24.2896 3.36007C24.3056 3.2854 24.319 3.21074 24.3296 3.13607C24.3883 3.07207 24.4523 3.0454 24.5216 3.05607C24.5963 3.06674 24.687 3.12807 24.7936 3.24007C24.8203 3.30407 24.8336 3.36274 24.8336 3.41607C24.8336 3.46407 24.8203 3.51474 24.7936 3.56807C24.7723 3.61607 24.743 3.68807 24.7056 3.78407C24.6736 3.88007 24.639 3.97607 24.6016 4.07207C24.5696 4.16274 24.5456 4.23207 24.5296 4.28007C24.519 4.33874 24.4896 4.43474 24.4416 4.56807C24.399 4.7014 24.3536 4.84007 24.3056 4.98407C24.2576 5.12274 24.223 5.23474 24.2016 5.32007C24.1696 5.40007 24.1456 5.4774 24.1296 5.55207C24.1136 5.62674 24.0976 5.72007 24.0816 5.83207C24.0923 5.88007 24.0843 5.92007 24.0576 5.95207C24.0363 5.97874 24.007 6.00274 23.9696 6.02407Z" fill="#E19595"/>
<path d="M19.6278 6.38405C19.6225 6.41605 19.5905 6.42405 19.5318 6.40805C19.4785 6.39738 19.4305 6.36005 19.3878 6.29605C19.3452 6.19471 19.3238 6.10138 19.3238 6.01605C19.3238 5.93072 19.3265 5.80272 19.3318 5.63205C19.3638 5.44538 19.4065 5.20272 19.4598 4.90405C19.5185 4.60005 19.5851 4.26138 19.6598 3.88805C19.7398 3.50938 19.8252 3.11471 19.9158 2.70405C19.9798 2.49071 20.0305 2.29605 20.0678 2.12005C20.1105 1.93871 20.1425 1.79205 20.1638 1.68005C20.1852 1.56805 20.1958 1.51205 20.1958 1.51205C20.1958 1.49605 20.1798 1.50405 20.1478 1.53605C20.1212 1.56271 20.0945 1.59472 20.0678 1.63205C20.0412 1.66938 20.0305 1.69871 20.0358 1.72005C20.0358 1.72005 20.0172 1.74671 19.9798 1.80005C19.9425 1.85338 19.8945 1.92538 19.8358 2.01605C19.7825 2.06938 19.7185 2.17605 19.6438 2.33605C19.5692 2.49605 19.4865 2.64538 19.3958 2.78405C19.3105 2.94405 19.2198 3.11738 19.1238 3.30405C19.0278 3.48538 18.9425 3.63738 18.8678 3.76005C18.8198 3.82938 18.7718 3.90938 18.7238 4.00005C18.6758 4.09072 18.6465 4.14938 18.6358 4.17605C18.6145 4.23471 18.5772 4.30672 18.5238 4.39205C18.4705 4.47205 18.4118 4.55205 18.3478 4.63205C18.3158 4.68005 18.2838 4.73072 18.2518 4.78405C18.2198 4.83205 18.1932 4.87472 18.1718 4.91205C18.1558 4.94405 18.1478 4.96005 18.1478 4.96005C18.1478 4.97605 18.1212 5.02405 18.0678 5.10405C18.0198 5.18405 17.9585 5.27205 17.8838 5.36805C17.8145 5.46405 17.7478 5.54672 17.6838 5.61605C17.4971 5.81338 17.3478 5.93072 17.2358 5.96805C17.1238 6.00005 16.9985 5.95205 16.8598 5.82405C16.7905 5.73872 16.7398 5.64272 16.7078 5.53605C16.6758 5.42405 16.6625 5.28805 16.6678 5.12805C16.6732 4.96272 16.6918 4.75738 16.7238 4.51205C16.7611 4.32538 16.7958 4.13871 16.8278 3.95205C16.8598 3.76005 16.8891 3.58138 16.9158 3.41605C16.9478 3.24538 16.9745 3.10138 16.9958 2.98405C17.0225 2.86672 17.0438 2.78938 17.0598 2.75205C17.0705 2.64538 17.0678 2.58671 17.0518 2.57605C17.0358 2.56538 17.0038 2.59738 16.9558 2.67205C16.9345 2.70938 16.8785 2.80271 16.7878 2.95205C16.6971 3.09605 16.5905 3.27472 16.4678 3.48805C16.3505 3.70138 16.2331 3.93338 16.1158 4.18405C15.8971 4.58938 15.7158 4.92538 15.5718 5.19205C15.4332 5.45338 15.3211 5.66138 15.2358 5.81605C15.1558 5.97072 15.0972 6.08538 15.0598 6.16005C15.0225 6.23472 14.9958 6.28538 14.9798 6.31205C14.9638 6.33872 14.9505 6.35738 14.9398 6.36805C14.8918 6.36805 14.8411 6.34672 14.7878 6.30405C14.7398 6.26672 14.6891 6.22138 14.6358 6.16805C14.6198 6.13072 14.6118 6.09338 14.6118 6.05605C14.6171 6.01872 14.6358 5.96538 14.6678 5.89605C14.6998 5.82138 14.7478 5.70938 14.8118 5.56005C14.8812 5.42138 14.9451 5.30138 15.0038 5.20005C15.0625 5.09338 15.1078 5.02938 15.1398 5.00805C15.1665 4.96538 15.1905 4.92272 15.2118 4.88005C15.2332 4.83738 15.2465 4.78672 15.2518 4.72805C15.2785 4.69605 15.3185 4.63205 15.3718 4.53605C15.4305 4.43472 15.4892 4.32538 15.5478 4.20805C15.5905 4.13872 15.6438 4.04805 15.7078 3.93605C15.7771 3.82405 15.8492 3.70138 15.9238 3.56805C15.9985 3.42938 16.0651 3.29871 16.1238 3.17605C16.3691 2.75471 16.5771 2.40005 16.7478 2.11205C16.9185 1.81871 17.0465 1.63205 17.1318 1.55205C17.1585 1.52538 17.1851 1.48805 17.2118 1.44005C17.2438 1.39205 17.2598 1.34938 17.2598 1.31205C17.2598 1.20005 17.2812 1.09871 17.3238 1.00805C17.3718 0.912048 17.4198 0.869382 17.4678 0.880048C17.5212 0.880048 17.5692 0.885382 17.6118 0.896048C17.6545 0.906715 17.6998 0.941382 17.7478 1.00005C17.7905 1.06405 17.8278 1.12805 17.8598 1.19205C17.8918 1.25605 17.8891 1.38405 17.8518 1.57605C17.8518 1.65071 17.8438 1.73605 17.8278 1.83205C17.8118 1.92272 17.7958 2.00805 17.7798 2.08805C17.7692 2.16271 17.7612 2.22138 17.7558 2.26405C17.6865 2.47205 17.6225 2.70672 17.5638 2.96805C17.5051 3.22405 17.4518 3.48538 17.4038 3.75205C17.3558 4.01338 17.3158 4.25872 17.2838 4.48805C17.2518 4.71205 17.2305 4.89872 17.2198 5.04805C17.2145 5.19205 17.2198 5.27472 17.2358 5.29605C17.2731 5.31738 17.3052 5.32005 17.3318 5.30405C17.3585 5.28805 17.4038 5.21872 17.4678 5.09605C17.5052 5.03205 17.5558 4.95472 17.6198 4.86405C17.6892 4.76805 17.7558 4.68005 17.8198 4.60005C17.8625 4.52538 17.9292 4.41338 18.0198 4.26405C18.1105 4.11472 18.2252 3.92272 18.3638 3.68805C18.5078 3.45338 18.6785 3.16805 18.8758 2.83205C19.0785 2.49072 19.3078 2.09605 19.5638 1.64805C19.6865 1.46138 19.8012 1.28005 19.9078 1.10405C20.0198 0.922715 20.1105 0.805382 20.1798 0.752048C20.2545 0.682715 20.3318 0.666715 20.4118 0.704048C20.4918 0.736048 20.5612 0.805382 20.6198 0.912048C20.6838 1.01871 20.7185 1.15205 20.7238 1.31205C20.7292 1.38672 20.7185 1.50672 20.6918 1.67205C20.6705 1.83738 20.6358 2.02671 20.5878 2.24005C20.5398 2.44805 20.4785 2.66405 20.4038 2.88805C20.3878 2.97871 20.3612 3.09338 20.3238 3.23205C20.2918 3.36538 20.2545 3.50405 20.2118 3.64805C20.1691 3.79205 20.1265 3.92805 20.0838 4.05605C20.0572 4.23205 20.0252 4.40538 19.9878 4.57605C19.9558 4.74672 19.9452 4.86138 19.9558 4.92005C19.9078 5.00538 19.8758 5.12805 19.8598 5.28805C19.8438 5.44805 19.8358 5.61338 19.8358 5.78405C19.8145 5.99205 19.7985 6.13872 19.7878 6.22405C19.7771 6.30938 19.7585 6.34938 19.7318 6.34405C19.6625 6.32272 19.6278 6.33605 19.6278 6.38405Z" fill="#E19595"/>
</svg>
