<svg width="360" height="400" viewBox="0 0 360 400" fill="none" xmlns="http://www.w3.org/2000/svg">
<mask id="path-1-outside-1_2_21" maskUnits="userSpaceOnUse" x="-19" y="0" width="400" height="400" fill="black">
<rect fill="white" x="-19" width="400" height="400"/>
<path d="M1 20H361V380H161C85.5753 380 47.8629 380 24.4315 356.569C1 333.137 1 295.425 1 220V20Z"/>
</mask>
<path d="M1 20H361V380H161C85.5753 380 47.8629 380 24.4315 356.569C1 333.137 1 295.425 1 220V20Z" fill="url(#paint0_radial_2_21)" fill-opacity="0.8"/>
<path d="M1 20H361V380H161C85.5753 380 47.8629 380 24.4315 356.569C1 333.137 1 295.425 1 220V20Z" stroke="url(#paint1_linear_2_21)" stroke-opacity="0.5" stroke-width="40" mask="url(#path-1-outside-1_2_21)"/>
<path d="M1 20H361V380H161C85.5753 380 47.8629 380 24.4315 356.569C1 333.137 1 295.425 1 220V20Z" stroke="url(#paint2_linear_2_21)" stroke-opacity="0.8" stroke-width="40" mask="url(#path-1-outside-1_2_21)"/>
<defs>
<radialGradient id="paint0_radial_2_21" cx="0" cy="0" r="1" gradientUnits="userSpaceOnUse" gradientTransform="translate(181 200) rotate(90) scale(180)">
<stop stop-color="#AC3F3F"/>
<stop offset="1" stop-color="#D9D9D9"/>
</radialGradient>
<linearGradient id="paint1_linear_2_21" x1="25" y1="386" x2="361" y2="258" gradientUnits="userSpaceOnUse">
<stop stop-color="#FDF6F6"/>
<stop offset="1" stop-color="#C32B2B"/>
</linearGradient>
<linearGradient id="paint2_linear_2_21" x1="361" y1="261" x2="1" y2="393" gradientUnits="userSpaceOnUse">
<stop stop-color="#3FBD23" stop-opacity="0"/>
<stop offset="1" stop-color="#FFFEFD"/>
</linearGradient>
</defs>
</svg>
