<svg width="360" height="296" viewBox="0 0 360 296" fill="none" xmlns="http://www.w3.org/2000/svg">
<mask id="path-1-outside-1_145_92" maskUnits="userSpaceOnUse" x="-15" y="0" width="444" height="297" fill="black">
<rect fill="white" x="-15" width="444" height="297"/>
<path d="M0 35C0 23.9543 8.95431 15 20 15H429V297H0V35Z"/>
</mask>
<path d="M0 35C0 23.9543 8.95431 15 20 15H429V297H0V35Z" fill="#B48B75"/>
<path d="M-15 35C-15 15.67 0.670034 0 20 0H429V30H20C17.2386 30 15 32.2386 15 35H-15ZM429 297H0H429ZM-15 297V35C-15 15.67 0.670034 0 20 0V30C17.2386 30 15 32.2386 15 35V297H-15ZM429 15V297V15Z" fill="url(#paint0_linear_145_92)" fill-opacity="0.8" mask="url(#path-1-outside-1_145_92)"/>
<path d="M-15 35C-15 15.67 0.670034 0 20 0H429V30H20C17.2386 30 15 32.2386 15 35H-15ZM429 297H0H429ZM-15 297V35C-15 15.67 0.670034 0 20 0V30C17.2386 30 15 32.2386 15 35V297H-15ZM429 15V297V15Z" fill="url(#paint1_linear_145_92)" fill-opacity="0.5" mask="url(#path-1-outside-1_145_92)"/>
<defs>
<linearGradient id="paint0_linear_145_92" x1="174.733" y1="45" x2="7.46931" y2="111.724" gradientUnits="userSpaceOnUse">
<stop stop-color="#894D45"/>
<stop offset="1" stop-color="white"/>
</linearGradient>
<linearGradient id="paint1_linear_145_92" x1="97.6096" y1="39" x2="403.507" y2="-32.4388" gradientUnits="userSpaceOnUse">
<stop stop-color="#FDF6F6"/>
<stop offset="1" stop-color="#C25454"/>
</linearGradient>
</defs>
</svg>
