<svg width="35" height="20" viewBox="0 0 35 20" fill="none" xmlns="http://www.w3.org/2000/svg">
<path d="M20.2025 10.2831L20.2719 10.2012C20.2677 10.2004 20.2483 10.22 20.2025 10.2831Z" fill="#C03E3E"/>
<path d="M17.943 15.4528C17.9548 15.4568 17.9684 15.4614 17.9767 15.4668C17.9556 15.4543 17.9449 15.4539 17.943 15.4528Z" fill="#C03E3E"/>
<path d="M23.7942 8.75525C23.793 8.75712 23.7921 8.75863 23.7912 8.75988C23.787 8.76789 23.7821 8.77677 23.7782 8.7839L23.7942 8.75525Z" fill="#C03E3E"/>
<path d="M19.7732 11.5093C19.9415 11.2058 20.0888 10.9646 20.2276 10.7562C20.368 10.5508 20.4942 10.3648 20.6309 10.2126C20.7704 10.0595 20.9142 9.93995 21.1138 9.90166C21.2178 9.87989 21.3451 9.87601 21.4991 9.87088C21.651 9.86474 21.8156 9.85811 21.9973 9.85073C22.1706 9.8451 22.3467 9.83947 22.5242 9.83371C22.6106 9.82958 22.7042 9.83095 22.817 9.81181C22.8727 9.80192 22.9322 9.78603 22.9912 9.75938C23.0502 9.7331 23.1073 9.69405 23.1514 9.65425C23.2411 9.57241 23.2956 9.49282 23.3491 9.42087C23.4043 9.34603 23.4548 9.2717 23.5051 9.19774C23.6051 9.04983 23.699 8.90316 23.7912 8.75988C23.9411 8.47193 24.272 8.00891 24.457 7.67753L24.5526 7.56478C24.617 7.45153 24.6966 7.32051 24.7793 7.22127L24.7789 7.2309C24.8292 7.14518 24.8841 7.07548 24.9466 6.98563C25.0082 6.89953 25.0529 6.78703 25.0569 6.71432L25.0601 6.72696C25.0793 6.60933 25.054 6.49746 25.019 6.40748C25.0273 6.42212 25.0351 6.43801 25.0429 6.45378C25.0061 6.35029 24.9556 6.26394 24.9075 6.19011C24.8589 6.11503 24.8106 6.04019 24.7629 5.96623C24.7116 5.89478 24.6611 5.8242 24.6115 5.75499C24.5591 5.68829 24.5076 5.62297 24.458 5.55977L24.4581 5.59444C24.2451 5.32664 24.0725 5.16658 23.9007 5.0238C23.7305 4.87776 23.5583 4.74987 23.3188 4.56003L23.3287 4.5604C22.9966 4.36243 22.742 4.20037 22.4816 4.04007C22.2212 3.88064 21.9538 3.72684 21.5926 3.57392C21.6827 3.61196 21.5604 3.54501 21.5698 3.54388C21.488 3.50446 21.4048 3.46442 21.3259 3.42637C21.2432 3.38808 21.1582 3.35504 21.0788 3.3354C20.9187 3.29247 20.7866 3.32026 20.7884 3.34253C20.7084 3.35142 20.6525 3.37119 20.6151 3.38746C20.5755 3.40348 20.5472 3.42225 20.533 3.43088C20.5028 3.45028 20.5014 3.44189 20.4789 3.45366C20.4849 3.45816 20.4381 3.52574 20.4018 3.59544C20.3807 3.63336 20.3658 3.65463 20.3311 3.69968C20.2998 3.74035 20.267 3.78302 20.2351 3.82445L20.289 3.74423C20.1659 3.90241 20.0544 4.06584 19.947 4.23141L20.041 4.15482C19.8597 4.40973 19.959 4.19612 19.8041 4.45316L19.8309 4.46567C19.5962 4.8282 19.4312 5.02505 19.2085 5.38095C18.9956 5.76075 18.7953 6.15657 18.6129 6.56566C18.5684 6.66877 18.5235 6.77152 18.4826 6.87738L18.3592 7.18848C18.3187 7.29811 18.2799 7.42287 18.2829 7.56253C18.2874 7.70569 18.3351 7.83008 18.4036 7.94146C18.5458 8.1617 18.7453 8.28872 18.9086 8.42225C19.077 8.55415 19.2121 8.68992 19.2793 8.86624C19.3508 9.04082 19.3623 9.24054 19.3475 9.43488C19.3306 9.63035 19.286 9.82332 19.2276 10.009L19.1875 10.069C19.1475 10.0886 19.1057 10.504 19.0552 10.5518L19.0108 10.7323C18.9892 10.78 18.9451 10.8806 18.9699 10.7917C18.9106 10.952 18.9145 10.9578 18.8814 11.077L18.7958 11.2404C18.5347 11.8601 18.3055 12.3865 17.9455 13.0048C17.7771 13.2694 17.5624 13.6246 17.3348 14.0093C17.2223 14.2024 17.1059 14.4022 16.99 14.6012C16.8451 14.8554 16.7008 15.1084 16.5628 15.3505C16.6991 15.3833 16.8345 15.414 16.96 15.4479C17.0016 15.4598 17.0427 15.4715 17.0833 15.4831C17.1213 15.4934 17.159 15.5036 17.196 15.5137C17.2715 15.5326 17.3384 15.5485 17.4123 15.5639C17.4797 15.5773 17.5444 15.5901 17.6061 15.6023L17.7255 15.6267L17.7954 15.6422C17.8046 15.6446 17.8141 15.6471 17.8229 15.6513C17.831 15.6564 17.8351 15.666 17.8376 15.675C17.842 15.6938 17.8376 15.7137 17.8309 15.7318C17.8265 15.7506 17.7684 15.847 17.7291 15.9176C17.686 15.9924 17.6425 16.0676 17.5989 16.1433C17.4229 16.4453 17.2388 16.7507 17.0544 17.0571C16.8698 17.3631 16.6853 17.6719 16.5079 17.9757C16.4202 18.1232 16.3308 18.2542 16.2253 18.3255C16.1228 18.3976 15.9878 18.4164 15.8371 18.4046C15.7997 18.3966 15.6943 18.3862 15.694 18.3895C15.6021 18.3676 15.4892 18.3435 15.4275 18.3146C15.3661 18.2847 15.3451 18.2516 15.3324 18.1813C15.3225 18.1125 15.3361 18.0232 15.3617 17.9352C15.3862 17.8481 15.4258 17.7544 15.4628 17.6604C15.4628 17.6604 15.5986 17.3194 15.8137 16.8846C16.0267 16.4497 16.3159 15.9224 16.5614 15.5386C16.5913 15.4924 16.6203 15.448 16.6478 15.4056C16.654 15.3935 16.6619 15.3841 16.6729 15.3779C16.6846 15.3718 16.6908 15.3679 16.7129 15.3614C16.7884 15.3385 16.866 15.33 16.9212 15.3273C16.9496 15.3255 16.9718 15.3266 16.9892 15.327C17.0059 15.3261 17.0099 15.334 17.0172 15.3205C17.0206 15.316 17.0247 15.3126 17.029 15.31L17.0321 15.3082L17.0337 15.3075L17.0341 15.3074C17.0516 15.2966 17.0106 15.3218 17.0149 15.3193L17.0153 15.3195L17.0182 15.3215C17.022 15.3238 17.025 15.3249 17.0273 15.3248C17.032 15.3245 17.0338 15.3191 17.0327 15.3085C17.0457 15.3034 17.0099 15.2681 16.9384 15.2531C16.8658 15.2397 16.7645 15.2215 16.6204 15.2583C16.5822 15.2674 16.5498 15.2975 16.5249 15.3314C16.5 15.3609 16.4738 15.392 16.4463 15.4248C16.3924 15.4913 16.3341 15.5658 16.2722 15.6493C16.1487 15.8162 16.0097 16.0182 15.8568 16.2606L15.8657 16.2304C15.5244 16.8189 15.3391 17.2088 15.1975 17.661C15.1657 17.6869 15.1049 17.8194 15.0773 17.9874C15.0648 18.0712 15.0602 18.1646 15.0814 18.2536C15.0998 18.3427 15.1485 18.4192 15.1868 18.4615L15.1697 18.4475C15.2224 18.5038 15.2899 18.5389 15.3491 18.5607C15.4093 18.5828 15.4646 18.5953 15.5154 18.6085C15.6188 18.635 15.7267 18.663 15.8418 18.6779C15.9563 18.6924 16.0813 18.6928 16.2027 18.6561C16.3244 18.6216 16.434 18.5451 16.5081 18.4587C16.4965 18.4726 16.5034 18.492 16.4144 18.5599C16.5603 18.4529 16.6628 18.2891 16.7354 18.1683C16.8083 18.0467 16.8593 17.9593 16.8767 17.9558C17.211 17.3518 17.6957 16.5191 17.8788 16.1139L17.8699 16.1438C17.9205 16.0269 17.9591 15.9566 18.0027 15.8811C18.0315 15.831 18.0646 15.7641 18.0741 15.6923C18.079 15.6559 18.0779 15.6168 18.0653 15.5769C18.0534 15.5364 18.0248 15.4965 17.9802 15.4781C17.9664 15.4635 17.9385 15.4523 17.9441 15.4527C17.9202 15.4435 17.8922 15.4378 17.8642 15.4306C17.8393 15.4253 17.8134 15.4195 17.7867 15.4137C17.7455 15.4052 17.7018 15.3963 17.6565 15.387C17.5671 15.3674 17.467 15.3485 17.3787 15.325C17.2854 15.3011 17.1984 15.2757 17.1179 15.2497C17.0978 15.2435 17.0783 15.2375 17.0595 15.2318C17.0496 15.2292 17.0402 15.2265 17.0312 15.2241C17.0131 15.2196 16.9962 15.216 16.9805 15.2134C16.9838 15.2086 16.9874 15.2039 16.9914 15.1992L16.9518 15.1899C16.9649 15.1622 16.9842 15.1315 17.0004 15.1016L17.1029 14.9239L17.0012 15.0899C16.9917 15.0834 17.0109 15.0427 17.0341 15.0036C17.0586 14.9621 17.0934 14.9108 17.1341 14.8512C17.2156 14.7321 17.3192 14.5789 17.4078 14.401C17.6025 14.0851 17.711 13.7054 17.925 13.3841C17.9986 13.214 17.874 13.5419 17.9976 13.2956C18.0228 13.2999 17.9461 13.4144 17.9982 13.3627C18.1236 13.123 18.2422 12.9911 18.3874 12.689L18.4103 12.6859C18.5881 12.2867 18.8077 11.961 18.8943 11.6795C18.9765 11.469 19.017 11.404 19.0554 11.335C19.0939 11.2663 19.134 11.1947 19.1953 10.9666C19.2236 10.9119 19.2535 10.8576 19.28 10.8023C19.3467 10.6121 19.2975 10.656 19.3765 10.4473C19.3877 10.465 19.4711 10.1815 19.4473 10.3109C19.5344 10.076 19.5995 9.81206 19.6211 9.52223C19.6315 9.37657 19.6314 9.22252 19.6082 9.05896C19.5861 8.8959 19.534 8.72146 19.4352 8.55302C19.3757 8.49107 19.2848 8.39109 19.1914 8.31262C19.0987 8.23303 19.0098 8.16671 18.9618 8.14268C18.9589 8.13129 18.8291 8.03068 18.7577 7.95409C18.7207 7.91605 18.6971 7.88402 18.6951 7.87626C18.6942 7.86812 18.7095 7.88589 18.7731 7.93883C18.7942 7.95722 18.833 7.99201 18.8265 7.99364L18.8698 8.00703C18.7468 7.87988 18.6607 7.78127 18.6156 7.66677C18.5923 7.6052 18.5821 7.55827 18.5883 7.4902C18.5936 7.42462 18.6164 7.34954 18.6502 7.26882C18.6026 7.36406 18.578 7.48119 18.5862 7.39847C18.6145 7.30286 18.6618 7.20212 18.708 7.092L18.694 7.16571L18.7962 6.92907C18.8296 6.85223 18.866 6.77577 18.9013 6.69931L18.8556 6.75525C18.9669 6.53262 19.0336 6.46792 19.1345 6.204C19.1781 6.08324 19.0052 6.4041 19.1182 6.16558C19.2792 5.87238 19.533 5.43964 19.7547 5.07585C19.716 5.09951 19.7743 5.00052 19.8312 4.89716L19.8544 4.89515C20.0689 4.49695 19.9737 4.77389 20.1985 4.38858L20.1878 4.4285L20.2203 4.30874C20.3188 4.1328 20.359 4.09488 20.4008 4.05246C20.4218 4.03131 20.4424 4.00766 20.4731 3.96723C20.4886 3.94734 20.5064 3.92281 20.5276 3.89165C20.538 3.87601 20.5494 3.85874 20.5622 3.83947C20.5785 3.81619 20.5976 3.78603 20.6119 3.75837C20.5498 3.8506 20.5283 3.8526 20.5394 3.82557C20.5551 3.79779 20.6034 3.69931 20.6543 3.63623L20.6428 3.68291C20.6706 3.63811 20.6835 3.62247 20.6957 3.61184C20.7041 3.6037 20.7298 3.59006 20.756 3.58468C20.7331 3.59694 20.7303 3.60558 20.7455 3.6052C20.7615 3.6057 20.7929 3.59607 20.8564 3.59444C20.8279 3.60232 20.8022 3.61158 20.7809 3.6251C20.8429 3.59744 20.9324 3.59619 21.0295 3.61772C21.1327 3.66102 21.2798 3.7396 21.4158 3.80718C21.5499 3.87438 21.6652 3.93482 21.7071 3.97049C21.7071 3.97049 21.8306 4.03681 21.9682 4.11077C22.1053 4.18473 22.2581 4.26332 22.32 4.28384C22.2142 4.24342 22.4781 4.40135 22.3917 4.37557C22.5275 4.42838 22.8998 4.63711 23.0256 4.75312L22.9978 4.73698C23.2525 4.91943 23.4665 5.07698 23.6656 5.24041C23.866 5.4021 24.0455 5.57692 24.2149 5.79554C24.2154 5.76213 24.3919 5.99589 24.3677 5.92319C24.4566 6.03619 24.5399 6.14644 24.6021 6.25906C24.6698 6.37006 24.726 6.4743 24.7439 6.55515C24.763 6.63911 24.7534 6.68642 24.7319 6.74298C24.7094 6.80005 24.6762 6.85936 24.6609 6.9153C24.5009 7.1403 24.4564 7.16896 24.3728 7.28297L24.4054 7.22665C24.1305 7.65401 24.051 7.77752 23.8469 8.09475C23.7525 8.25694 23.7705 8.30386 23.58 8.5803C23.6256 8.48044 23.5538 8.59757 23.485 8.70219C23.5268 8.63374 23.5355 8.60996 23.4364 8.74173C23.4279 8.76388 23.4105 8.79517 23.3941 8.82445C23.3924 8.82495 23.3879 8.82983 23.3884 8.82608C23.2772 9.0029 23.3009 8.97487 23.3571 8.89603C23.3565 8.90141 23.3635 8.8964 23.3837 8.87388C23.2496 9.04419 23.0391 9.37044 23.0018 9.36193C22.9561 9.41586 22.914 9.45316 22.8664 9.47556C22.8176 9.49896 22.7595 9.51172 22.6965 9.51848C22.5684 9.53024 22.4289 9.5365 22.3028 9.54601C22.0459 9.56365 21.8022 9.5813 21.5399 9.59532C21.4803 9.5833 21.6027 9.56678 21.755 9.5564L21.3822 9.57392C21.3855 9.55352 21.5962 9.55515 21.7109 9.54739C21.5994 9.54301 21.4879 9.54438 21.3717 9.54964C21.2548 9.55552 21.1288 9.56716 21.0002 9.60483C20.8708 9.64149 20.7454 9.7107 20.6404 9.79542C20.5338 9.88001 20.4401 9.97787 20.3496 10.0791L20.2939 10.1772L20.2727 10.2012C20.2801 10.205 20.2197 10.3079 20.1798 10.3743C20.1242 10.4263 20.1485 10.3467 20.0052 10.5648C19.88 10.7297 19.7045 11.0673 19.5872 11.3085C19.6598 11.1832 19.6458 11.2289 19.621 11.2863C19.5583 11.3996 19.5081 11.4573 19.4685 11.5494H19.4417C19.4841 11.5143 19.3063 11.8601 19.2948 11.9077C19.246 11.9655 19.3716 11.7218 19.3751 11.6872C19.1422 12.1508 19.2572 11.9184 19.0311 12.3843C18.9275 12.6409 19.073 12.3489 19.0345 12.4769C18.9327 12.6983 18.8461 12.9201 18.7141 13.1666L18.7708 13.0955C18.5907 13.516 18.4716 13.7621 18.3197 14.0306C17.99 14.8158 17.8007 15.2484 17.7202 15.4634C17.6399 15.6784 17.6682 15.6742 17.7431 15.5748C17.8165 15.4738 17.9389 15.277 18.0362 15.1023C18.1355 14.9284 18.2139 14.7789 18.2139 14.7789C18.5348 14.186 18.7464 13.7222 18.9666 13.2294C19.1869 12.7375 19.4081 12.2108 19.7732 11.5093Z" fill="#C03E3E"/>
<path d="M15.9709 18.1536L15.9698 18.1627C15.9714 18.1591 15.9723 18.1556 15.9709 18.1536Z" fill="#C03E3E"/>
<path d="M16.0778 18.3024V18.302L16.0759 18.3009L16.0778 18.3024Z" fill="#C03E3E"/>
<path d="M15.8201 18.3811C15.851 18.4079 15.8426 18.4492 15.8867 18.4522C15.8962 18.4589 15.9079 18.4619 15.92 18.464L16.0648 18.2965C16.0658 18.2966 16.0663 18.297 16.0663 18.297C16.0703 18.2979 16.0738 18.2994 16.0764 18.3012C16.0865 18.3056 16.0883 18.308 16.1076 18.3216C16.1168 18.3285 16.1198 18.3325 16.1322 18.3434C16.1357 18.3467 16.1406 18.3512 16.1485 18.3584C16.1472 18.3572 16.1455 18.3554 16.1432 18.353C16.1491 18.3558 16.159 18.3553 16.1644 18.3587C16.1632 18.348 16.1644 18.3392 16.1773 18.3412L16.181 18.3449C16.1781 18.3295 16.1931 18.3274 16.1914 18.3199L16.1955 18.3234L16.2023 18.3138L16.2072 18.3196C16.2077 18.2992 16.2179 18.2872 16.2329 18.2787L16.2123 18.2691C16.2537 18.2559 16.2167 18.2294 16.2555 18.2158L16.2603 18.2178C16.2171 18.1733 16.3163 18.1703 16.2601 18.128C16.2674 18.1327 16.2714 18.1273 16.2769 18.128C16.2697 18.112 16.2624 18.0966 16.2169 18.0966C16.2144 18.0875 16.2284 18.0888 16.2457 18.0871C16.2258 18.0876 16.2142 18.0796 16.2099 18.0726L16.2191 18.0755C16.2142 18.0685 16.2088 18.0617 16.2024 18.0551L16.1664 18.0637C16.1715 18.0526 16.2114 18.055 16.1965 18.046L16.165 18.0512C16.1626 18.0372 16.2043 18.0182 16.2144 17.9941C16.1952 17.9571 16.1461 17.9288 16.1008 17.9102C16.0541 17.8907 16.0152 17.8784 15.9802 17.842L15.9834 17.8199C15.9907 17.7878 15.9436 17.859 15.9484 17.8305L15.9347 17.8431C15.933 17.837 15.9274 17.8298 15.9341 17.8236C15.924 17.8206 15.9228 17.8257 15.9146 17.835L15.9052 17.8143C15.8608 17.7967 15.8294 17.8403 15.7899 17.8444C15.7587 17.8326 15.72 17.8487 15.6952 17.8769C15.6693 17.9045 15.658 17.9407 15.6532 17.9645C15.6559 18.0024 15.6206 18.0202 15.5901 18.0532C15.5583 18.0836 15.5342 18.1282 15.5632 18.157C15.5587 18.16 15.5691 18.1636 15.5727 18.1627C15.5715 18.1826 15.5726 18.2026 15.576 18.2221C15.5731 18.2218 15.5956 18.2951 15.6478 18.3059C15.6782 18.3156 15.7046 18.3064 15.7237 18.2752C15.7431 18.2435 15.7635 18.1966 15.8122 18.1458L15.8181 18.1423C15.8289 18.1257 15.8326 18.1238 15.8008 18.1298C15.8384 18.1147 15.8046 18.1218 15.8168 18.1157L15.82 18.1149C15.7913 18.1164 15.8448 18.1018 15.8201 18.1021C15.823 18.102 15.8331 18.1013 15.8335 18.1019C15.8294 18.1001 15.8226 18.096 15.8435 18.096C15.84 18.09 15.8513 18.0876 15.8257 18.0734L15.8304 18.0755C15.8133 18.0657 15.8299 18.0714 15.8229 18.0643C15.8251 18.0652 15.8264 18.0657 15.8272 18.0661C15.8126 18.0541 15.832 18.0566 15.8277 18.0501L15.837 18.0571L15.8405 18.051H15.8366C15.8147 18.0284 15.8549 18.0612 15.8454 18.0443C15.8498 18.046 15.8221 17.9861 15.8395 17.9956C15.8378 17.9819 15.8456 18.017 15.8469 18.0057C15.8533 18.0197 15.8485 18.0152 15.8549 18.0259C15.8569 18.0179 15.867 18.0384 15.8687 18.0279L15.8719 18.0393C15.874 18.017 15.8842 18.0535 15.8859 18.0328C15.8931 18.0234 15.8877 18.0675 15.8948 18.0449L15.8938 18.0608C15.8947 18.0635 15.8993 18.0419 15.8998 18.0497C15.8971 18.0593 15.8999 18.058 15.8961 18.0669C15.8917 18.0819 15.9145 18.0482 15.9038 18.0737C15.9176 18.0573 15.9122 18.0682 15.9241 18.0568C15.918 18.0638 15.9286 18.0607 15.9106 18.0737C15.9092 18.0749 15.9091 18.0745 15.9118 18.0719L15.9023 18.0809C15.8849 18.0981 15.915 18.073 15.9148 18.0772C15.9181 18.0742 15.9161 18.0744 15.9245 18.0692L15.9252 18.0719L15.9148 18.078L15.9111 18.0831L15.9241 18.0756C15.9191 18.0807 15.8948 18.0919 15.9162 18.0835C15.9286 18.0791 15.9342 18.0737 15.9406 18.0731C15.9335 18.0796 15.9195 18.0871 15.9153 18.0895C15.9344 18.0847 15.9341 18.0855 15.9389 18.0854L15.9218 18.089C15.9477 18.0865 15.8841 18.0964 15.9042 18.094L15.8916 18.0956L15.9297 18.0911C15.9685 18.09 15.8913 18.0949 15.9444 18.0938C15.9402 18.0929 15.986 18.0909 15.9795 18.0936L15.9604 18.0938C15.965 18.0945 15.9733 18.0949 15.9699 18.0956C15.9591 18.0951 15.942 18.0956 15.946 18.0968L15.9216 18.0961L15.9585 18.0985C15.9385 18.0993 15.9666 18.1045 15.9382 18.1023C15.9382 18.1023 15.9245 18.1028 15.956 18.11C15.9362 18.1061 15.9289 18.1048 15.9057 18.1003C15.9281 18.1049 15.945 18.113 15.9213 18.1068L15.9188 18.1059C15.8957 18.099 15.9459 18.1222 15.9176 18.1124C15.9384 18.1232 15.9257 18.1185 15.9518 18.1325C15.9698 18.1528 15.8981 18.1043 15.9653 18.159C15.9659 18.1643 15.9466 18.1487 15.9424 18.1466L15.9395 18.1431C15.9406 18.1443 15.9385 18.1483 15.9419 18.1462C15.9409 18.1487 15.9375 18.1531 15.9356 18.1557C15.9293 18.1628 15.9258 18.1667 15.918 18.1756C15.9176 18.1896 15.9491 18.2141 15.9315 18.2254C15.9208 18.2124 15.9191 18.2204 15.9155 18.2293C15.9155 18.2232 15.9112 18.2181 15.8963 18.226C15.9002 18.2297 15.9019 18.2333 15.9033 18.2365C15.9021 18.2362 15.9011 18.2363 15.8996 18.2355C15.8993 18.2526 15.9053 18.2508 15.9096 18.245C15.9118 18.2462 15.915 18.2466 15.9197 18.2461C15.9012 18.2513 15.9053 18.2737 15.8987 18.2825L16.051 18.196C16.0506 18.1936 16.0515 18.1897 16.0544 18.1832C16.0356 18.1811 16.0118 18.2008 15.9939 18.2038C15.9986 18.1905 16.0071 18.1809 16.0133 18.1778H16.0017C16.0106 18.1598 16.0122 18.1701 16.0168 18.1678C16.0198 18.1331 15.9794 18.1857 15.9793 18.1524L15.9696 18.1655L15.97 18.1627C15.9664 18.1703 15.9584 18.1791 15.9553 18.1806C15.9611 18.164 15.973 18.1443 15.9661 18.1421C15.9684 18.1244 15.9477 18.1426 15.9369 18.1477C15.9392 18.1522 15.9337 18.1603 15.9295 18.1651C15.926 18.1641 15.9317 18.1473 15.926 18.1529L15.936 18.1315C15.9275 18.1522 15.917 18.1491 15.9115 18.1571C15.9173 18.1404 15.9231 18.1459 15.9297 18.1345C15.9157 18.1302 15.9227 18.1323 15.9087 18.1279C15.8939 18.1406 15.9002 18.1487 15.8878 18.1657C15.8797 18.1668 15.8664 18.1787 15.8655 18.1625L15.8586 18.1824C15.8399 18.1914 15.834 18.1859 15.8356 18.163C15.6743 18.2747 15.7151 18.3642 15.7151 18.3642C15.7283 18.4225 15.7725 18.3761 15.8201 18.3811Z" fill="#C03E3E"/>
<path d="M23.1222 7.94108L23.1391 7.93445C23.136 7.93207 23.1307 7.93295 23.1222 7.94108Z" fill="#C03E3E"/>
<path d="M22.4019 8.30474C22.4018 8.30624 22.4018 8.30724 22.4016 8.30899C22.4024 8.30636 22.4023 8.30524 22.4019 8.30474Z" fill="#C03E3E"/>
<path d="M23.747 7.652L23.7465 7.65263C23.7462 7.65438 23.7459 7.65551 23.7455 7.65726L23.747 7.652Z" fill="#C03E3E"/>
<path d="M23.2053 8.26369C23.3508 8.10601 23.4185 8.08837 23.5482 7.90729C23.6186 7.82808 23.6838 7.73522 23.7465 7.65263C23.7538 7.59444 23.8331 7.54826 23.8504 7.48594L23.8791 7.47968C23.8853 7.45778 23.8959 7.43514 23.9168 7.42437L23.9201 7.42863C23.9292 7.39547 23.9579 7.37144 23.962 7.35404L23.9654 7.3583L23.9871 7.32451L23.9892 7.33452C24.0112 7.27896 24.0431 7.2274 24.0752 7.18022L24.0536 7.17409C24.129 7.07561 24.1038 7.01716 24.1494 6.90804L24.1544 6.9103C24.1444 6.87125 24.1417 6.83959 24.1386 6.79904C24.1367 6.78152 24.135 6.764 24.133 6.74486C24.1305 6.72333 24.1265 6.70531 24.1222 6.68529C24.1042 6.61008 24.0603 6.52223 23.9657 6.4932C23.9884 6.50121 23.9627 6.47681 23.9659 6.4738C23.8843 6.42688 23.7823 6.44039 23.7858 6.48481C23.7294 6.49432 23.7385 6.48356 23.7275 6.46804C23.7304 6.48581 23.6852 6.51272 23.6489 6.54351L23.6636 6.52411C23.6261 6.55277 23.591 6.58681 23.5731 6.6032L23.6093 6.61947C23.5655 6.64187 23.5726 6.59369 23.5421 6.62948L23.5612 6.65175C23.5056 6.68879 23.4483 6.68166 23.3843 6.70756C23.1694 6.87725 23.0207 7.13667 22.818 7.29147L22.794 7.28534C22.7658 7.26769 22.7853 7.36944 22.7564 7.35742L22.7489 7.38933C22.7393 7.39196 22.7234 7.40134 22.7271 7.38558C22.7087 7.4056 22.7124 7.40948 22.7075 7.43063L22.6737 7.44064C22.5944 7.51472 22.5698 7.61071 22.4973 7.69655C22.3839 7.78202 22.2739 8.01729 22.2199 8.15419C22.1883 8.25455 22.1172 8.3409 22.0489 8.43176C21.9861 8.52023 21.8957 8.61596 21.9137 8.79879C21.9085 8.81068 21.9212 8.83909 21.9247 8.83796C21.9317 8.94145 21.9919 9.03969 22.0842 9.0895C22.0842 9.0895 22.1044 9.10214 22.1421 9.11427C22.1788 9.12666 22.237 9.13567 22.2965 9.12904C22.4154 9.11765 22.5185 9.04107 22.5686 8.98C22.6203 8.91768 22.637 8.86762 22.6045 8.84885C22.5879 8.83934 22.5574 8.83859 22.5103 8.8466C22.4641 8.85311 22.3963 8.87263 22.3271 8.86499L22.3273 8.85736C22.3088 8.86036 22.2975 8.85974 22.2853 8.85961C22.2754 8.85936 22.2667 8.85911 22.2585 8.85899C22.2451 8.85911 22.2318 8.86487 22.2067 8.87138C22.2289 8.83496 22.1824 8.84435 22.1903 8.82395L22.1939 8.82307C22.1733 8.81931 22.1776 8.79955 22.186 8.78791C22.1935 8.77902 22.205 8.76037 22.1977 8.73372C22.2005 8.73647 22.2114 8.74098 22.2094 8.75061C22.2116 8.71971 22.2238 8.66777 22.2483 8.67578C22.2836 8.58693 22.3639 8.46166 22.3606 8.38595L22.3645 8.39334C22.3587 8.34678 22.385 8.34891 22.3943 8.30549C22.3983 8.30511 22.4013 8.30349 22.4021 8.30449C22.3995 8.25518 22.4595 8.19875 22.4678 8.16496L22.4832 8.17196L22.5233 8.10038L22.504 8.12441C22.4706 8.09037 22.5613 8.08749 22.5695 8.02204C22.6043 7.97899 22.5539 7.87425 22.6065 7.83909C22.605 7.8038 22.6209 7.87938 22.6313 7.83571C22.6515 7.8486 22.6324 7.86024 22.6541 7.86261C22.6679 7.82244 22.7125 7.82282 22.7294 7.77327L22.7457 7.78278C22.7569 7.70957 22.8391 7.69981 22.8404 7.64612C22.8703 7.58393 22.9107 7.64499 22.9271 7.56853L22.9639 7.5639C22.9861 7.54376 22.9538 7.52761 22.9843 7.51022C22.9952 7.52198 23.0206 7.48644 23.0198 7.5111C23.0875 7.47193 23.0925 7.37307 23.1912 7.33039C23.1831 7.29373 23.2299 7.26982 23.2247 7.24267C23.2363 7.25017 23.2959 7.17359 23.2778 7.23353C23.2761 7.23854 23.2699 7.24429 23.2666 7.24016L23.2751 7.25769C23.3391 7.24267 23.3319 7.17159 23.3762 7.13742C23.3602 7.14443 23.3456 7.1607 23.3472 7.14155L23.3861 7.10764L23.3891 7.12616L23.4504 7.07973L23.4297 7.0731C23.4633 7.05408 23.4956 7.06998 23.5083 7.02142C23.5123 6.99739 23.4646 7.0263 23.4899 6.99514C23.5354 6.97036 23.6049 6.93595 23.6572 6.89916C23.6387 6.88664 23.6523 6.87601 23.6628 6.86111L23.6765 6.87413C23.712 6.81093 23.7218 6.89002 23.7606 6.8317L23.7642 6.8456L23.7533 6.80405C23.7697 6.74323 23.7841 6.82845 23.7798 6.76789C23.7751 6.77552 23.7606 6.72947 23.7772 6.72934L23.7787 6.75024C23.7832 6.7431 23.7846 6.73347 23.7897 6.73647C23.7868 6.74861 23.7911 6.76613 23.7976 6.76138C23.7958 6.77014 23.795 6.77927 23.7946 6.78803C23.7962 6.77464 23.801 6.76125 23.8082 6.74924C23.8149 6.77101 23.8398 6.75975 23.8269 6.78603C23.8285 6.78766 23.826 6.80605 23.8527 6.79967C23.8356 6.80368 23.8325 6.81518 23.8124 6.81919L23.8255 6.81656C23.8306 6.81932 23.8338 6.82319 23.8365 6.82732C23.8413 6.83208 23.8393 6.84685 23.8281 6.85586L23.826 6.85248C23.8007 6.90829 23.831 6.97199 23.7749 7.02542C23.7957 7.03268 23.7668 7.06059 23.7955 7.0661C23.7781 7.15006 23.6679 7.15519 23.7171 7.23153C23.6962 7.26557 23.6722 7.25568 23.6558 7.26895L23.6583 7.25869C23.6163 7.32088 23.6015 7.3394 23.5635 7.38207C23.5514 7.40948 23.5792 7.43839 23.5388 7.47168C23.5373 7.44878 23.526 7.46679 23.5138 7.48156C23.5198 7.47055 23.5177 7.46392 23.4934 7.47643C23.4949 7.48231 23.4936 7.48845 23.4922 7.49395C23.4911 7.49333 23.4897 7.49345 23.4887 7.49195C23.4725 7.5201 23.4799 7.51898 23.491 7.50897C23.4924 7.5111 23.4955 7.51209 23.5019 7.51134C23.4648 7.52373 23.4434 7.58343 23.42 7.56916C23.3631 7.64725 23.3404 7.7182 23.297 7.78653C23.2805 7.78453 23.283 7.76213 23.2938 7.74073L23.2612 7.78766C23.2461 7.77439 23.2734 7.75512 23.2815 7.7391C23.2131 7.77026 23.2168 7.86725 23.143 7.90904L23.1446 7.93194L23.1396 7.93395C23.1462 7.9392 23.1436 7.96022 23.1381 7.97099C23.1175 7.96836 23.1076 7.94446 23.0832 7.97537C23.0502 7.98838 23.033 8.0487 23.0141 8.08599C23.0305 8.07097 23.0334 8.08274 23.032 8.09387C23.0198 8.10939 22.9991 8.10689 22.9952 8.12328L22.9758 8.10952C22.9978 8.1179 22.9613 8.16446 22.964 8.17622C22.9434 8.17359 22.972 8.14318 22.965 8.13092C22.9161 8.19286 22.9406 8.16195 22.8917 8.2239C22.8784 8.26769 22.9137 8.23241 22.9169 8.26119C22.8966 8.29272 22.8859 8.33114 22.8476 8.35467L22.8724 8.35767C22.8401 8.42174 22.8115 8.45228 22.7651 8.4748C22.5628 8.98388 22.8742 8.70869 22.8742 8.70869C23.0407 8.5818 23.0615 8.46141 23.2053 8.26369Z" fill="#C03E3E"/>
<path d="M21.6404 7.48143L21.6577 7.47041C21.6542 7.46854 21.6488 7.47066 21.6404 7.48143Z" fill="#C03E3E"/>
<path d="M21.4559 7.22276C21.4557 7.22439 21.4556 7.22564 21.4553 7.22752C21.4563 7.22439 21.4563 7.22326 21.4559 7.22276Z" fill="#C03E3E"/>
<path d="M22.2816 7.05232L22.2811 7.05307C22.2808 7.05508 22.2805 7.0562 22.2803 7.0582L22.2816 7.05232Z" fill="#C03E3E"/>
<path d="M21.7532 7.81343C21.8896 7.61146 21.9583 7.57917 22.0829 7.3603C22.1524 7.26244 22.2168 7.15144 22.281 7.05308C22.2871 6.98888 22.3703 6.92744 22.3879 6.85861L22.4174 6.8486C22.4235 6.82482 22.4347 6.79992 22.4562 6.7874L22.4596 6.79166C22.469 6.75624 22.4985 6.73047 22.5031 6.71282L22.5065 6.71708L22.5297 6.68279L22.5313 6.69293C22.5561 6.63724 22.5921 6.58781 22.6306 6.54976L22.6107 6.53988C22.701 6.46442 22.692 6.40323 22.7802 6.34065L22.7834 6.34504C22.8185 6.20738 22.9586 6.20438 22.9898 6.02342C22.9867 6.04545 23.0039 6.02004 23.0079 6.02367C23.0381 5.94809 23.0499 5.85298 23.0066 5.84735C23.0134 5.78528 23.0228 5.79629 23.0401 5.7879C23.0216 5.78778 23.0131 5.73284 22.9989 5.68754L23.0108 5.70756C22.9992 5.66239 22.9809 5.61984 22.956 5.5808C22.9505 5.59456 22.9437 5.60796 22.937 5.62059C22.9121 5.55677 22.9683 5.58242 22.9197 5.52961L22.8974 5.54876C22.8419 5.47606 22.7968 5.38871 22.6697 5.36431C22.6057 5.36255 22.5338 5.38658 22.4857 5.41674C22.4362 5.4469 22.3986 5.48269 22.3675 5.51748C22.305 5.58918 22.2677 5.65125 22.2203 5.7157C22.1301 5.84422 22.0397 5.96811 21.9336 6.06697L21.9083 6.06372C21.8793 6.04895 21.8988 6.15519 21.8688 6.14631L21.861 6.18185C21.8509 6.18598 21.8342 6.19824 21.8382 6.1806C21.8191 6.20475 21.8229 6.20838 21.8177 6.23203L21.7821 6.24692C21.6983 6.33652 21.6707 6.44327 21.5922 6.54401C21.4716 6.64775 21.3456 6.91167 21.279 7.06509C21.1993 7.28785 20.9533 7.46104 20.8896 7.70006C20.8819 7.70481 20.8814 7.72734 20.8848 7.72897C20.8495 7.79529 20.8162 7.85235 20.7792 7.92644C20.7792 7.92644 20.7723 7.9402 20.7617 7.96786C20.7564 7.98175 20.7503 7.9994 20.7449 8.02142C20.739 8.0447 20.7343 8.07473 20.7336 8.10526C20.7333 8.15807 20.747 8.21727 20.7786 8.26895C20.8097 8.32151 20.8561 8.36418 20.9023 8.38946C20.9961 8.44514 21.1082 8.43764 21.159 8.40498C21.211 8.37056 21.2033 8.34478 21.1554 8.32776C21.1318 8.31763 21.0987 8.30524 21.067 8.27733C21.0368 8.25218 21.0021 8.204 21.0033 8.16008L21.0103 8.15795C21.0043 8.13693 21.0058 8.12128 21.0068 8.10802C21.0073 8.095 21.0096 8.06234 21.0101 8.01554C21.0527 8.02568 21.0572 7.93307 21.0821 7.91518L21.0841 7.91905C21.087 7.83984 21.177 7.80155 21.1831 7.72684C21.1849 7.73084 21.1946 7.73773 21.1878 7.75212C21.2063 7.70506 21.2314 7.64061 21.2552 7.64937C21.3067 7.54088 21.4006 7.40235 21.4053 7.31588L21.4086 7.32401C21.4076 7.27245 21.4337 7.27295 21.4476 7.22402C21.4518 7.2234 21.4551 7.2214 21.4559 7.22252C21.4579 7.16783 21.5246 7.10101 21.5359 7.06259L21.5514 7.06935L21.5987 6.98676L21.5768 7.01491C21.5444 6.97975 21.6394 6.96949 21.6522 6.89565C21.6917 6.8446 21.6443 6.73335 21.7007 6.68955C21.7007 6.65075 21.714 6.73259 21.727 6.68341C21.7478 6.69555 21.727 6.71044 21.7498 6.71082C21.7663 6.66514 21.8135 6.66089 21.8329 6.60395L21.8495 6.61258C21.864 6.53049 21.9515 6.5101 21.9539 6.45015C21.9864 6.37745 22.0293 6.44026 22.0474 6.35329L22.0863 6.34278C22.1101 6.31738 22.0759 6.30424 22.1087 6.28084C22.1201 6.29223 22.1481 6.24968 22.1466 6.27671C22.2182 6.22227 22.2249 6.11465 22.3285 6.05033C22.3197 6.01178 22.3701 5.97824 22.3635 5.94921C22.3759 5.95522 22.4373 5.86036 22.4197 5.92931C22.418 5.9352 22.4116 5.94258 22.4079 5.9387L22.4174 5.95622C22.4847 5.92719 22.4775 5.85273 22.5224 5.80605C22.5056 5.81694 22.4906 5.83759 22.4917 5.81644L22.5314 5.77226L22.5357 5.79116C22.5561 5.77126 22.5752 5.75387 22.5935 5.7396L22.5729 5.73335C22.6051 5.71445 22.6333 5.73284 22.6383 5.69568C22.6408 5.67565 22.6035 5.68829 22.623 5.66777C22.6639 5.65651 22.6771 5.68291 22.6857 5.69167C22.6936 5.6714 22.6975 5.67403 22.7047 5.6739L22.6943 5.68942C22.7276 5.68642 22.6697 5.72033 22.7005 5.72909L22.6878 5.7336C22.7005 5.72859 22.713 5.72509 22.7261 5.72221C22.775 5.74386 22.6986 5.74936 22.7547 5.77689C22.7495 5.761 22.7951 5.76225 22.7884 5.78803L22.7703 5.78315C22.7746 5.79454 22.7821 5.79917 22.7774 5.80643C22.7677 5.80004 22.7526 5.79879 22.7525 5.81806C22.7456 5.81281 22.7396 5.80643 22.7318 5.80355C22.742 5.81368 22.7502 5.82945 22.7578 5.84472C22.7328 5.86787 22.7309 5.92681 22.7001 5.92831C22.7001 5.92831 22.688 5.94345 22.6757 5.9626C22.6634 5.98187 22.651 6.00553 22.6558 6.02217C22.6527 5.99764 22.6179 6.03268 22.6102 6.00915C22.6126 6.03881 22.5787 6.10551 22.5427 6.11678L22.5445 6.11077C22.4559 6.18573 22.4449 6.28033 22.3618 6.34466C22.3817 6.35429 22.3392 6.38946 22.3693 6.39609C22.3269 6.49608 22.2073 6.51447 22.2532 6.59669C22.2283 6.63774 22.2032 6.6301 22.1848 6.64725L22.188 6.63536C22.1402 6.71169 22.1259 6.73347 22.0849 6.78616C22.0721 6.81794 22.1017 6.8456 22.0594 6.88839C22.0576 6.86349 22.046 6.88502 22.033 6.90316C22.0391 6.89015 22.037 6.88314 22.0113 6.90091C22.0129 6.90704 22.0117 6.91405 22.0103 6.92031C22.0092 6.9198 22.0077 6.92018 22.0067 6.91868C21.9898 6.95222 21.9976 6.94971 22.0093 6.93695C22.0108 6.93908 22.0142 6.93958 22.0208 6.93783C21.9818 6.9576 21.9608 7.02693 21.9356 7.01529C21.877 7.1109 21.8561 7.19311 21.8137 7.2762C21.7963 7.27721 21.7978 7.2523 21.8081 7.22665L21.7762 7.28471C21.7597 7.2732 21.7873 7.24667 21.7951 7.2274C21.7247 7.27546 21.7333 7.38045 21.659 7.44227L21.6622 7.46692L21.657 7.47018C21.6643 7.47443 21.6629 7.49795 21.6579 7.51084C21.6361 7.51247 21.624 7.48845 21.601 7.52787C21.5677 7.54964 21.5541 7.61947 21.5377 7.66464C21.5533 7.64437 21.5574 7.65651 21.5571 7.66902C21.5458 7.68879 21.5241 7.69105 21.5215 7.70994L21.5001 7.69956C21.5238 7.70343 21.49 7.763 21.494 7.77514C21.4722 7.77727 21.4992 7.7371 21.4909 7.72546C21.4461 7.8053 21.4685 7.76538 21.4237 7.8451C21.4144 7.89615 21.4474 7.84872 21.4536 7.87938C21.4359 7.91893 21.4288 7.96298 21.3924 7.99889L21.4183 7.99576C21.3929 8.07398 21.3666 8.11415 21.322 8.15144C21.2528 8.45541 21.2929 8.50997 21.3449 8.48919C21.3979 8.46867 21.4665 8.37357 21.4665 8.37357C21.6189 8.19311 21.6244 8.05959 21.7532 7.81343Z" fill="#C03E3E"/>
<path d="M20.3232 6.64912L20.3403 6.63736C20.3367 6.63549 20.3313 6.63786 20.3232 6.64912Z" fill="#C03E3E"/>
<path d="M19.9345 6.46793C19.9344 6.46968 19.9344 6.4708 19.9342 6.47281C19.9351 6.46968 19.935 6.46855 19.9345 6.46793Z" fill="#C03E3E"/>
<path d="M20.9533 6.16821L20.9528 6.16909C20.9525 6.17109 20.9524 6.17247 20.9521 6.17447L20.9533 6.16821Z" fill="#C03E3E"/>
<path d="M20.4372 6.98588C20.5763 6.77364 20.6458 6.73673 20.7663 6.50247C20.8335 6.39647 20.8941 6.27684 20.9526 6.16909C20.9551 6.10289 21.0347 6.03068 21.0471 5.95798L21.0763 5.94421C21.0806 5.91918 21.0895 5.89215 21.1102 5.87664L21.1139 5.88064C21.1204 5.84322 21.1478 5.81306 21.151 5.79454L21.1547 5.79855L21.1748 5.76038L21.1774 5.77052C21.1967 5.71007 21.2284 5.65501 21.263 5.61009L21.2418 5.60295C21.3243 5.51235 21.3079 5.45166 21.3884 5.37345L21.3921 5.37745C21.4025 5.30412 21.4387 5.2627 21.4753 5.2209C21.511 5.17948 21.5512 5.13881 21.5642 5.04645C21.5613 5.0691 21.5783 5.04257 21.5823 5.04608C21.5966 5.00566 21.6081 4.96361 21.6087 4.91943C21.6095 4.87488 21.5966 4.8466 21.5753 4.84735C21.5726 4.77652 21.5822 4.78691 21.5977 4.77289C21.5798 4.7774 21.5601 4.71746 21.5289 4.67228C21.5355 4.67791 21.5414 4.68417 21.5475 4.69055C21.5214 4.64375 21.483 4.60458 21.4364 4.5803C21.4393 4.59532 21.4407 4.61071 21.4409 4.62548C21.3819 4.5793 21.4488 4.57354 21.3713 4.55452L21.3625 4.58255C21.2687 4.5539 21.1749 4.53901 21.0874 4.54864C20.9021 4.61672 20.7734 4.76238 20.6729 4.89453C20.5719 5.02931 20.4842 5.15658 20.375 5.26132L20.3494 5.25894C20.32 5.24492 20.3399 5.3528 20.3097 5.34491L20.302 5.38158C20.2918 5.38621 20.2751 5.39947 20.2789 5.3812C20.2596 5.40661 20.2635 5.41023 20.2585 5.43464L20.2226 5.45153C20.1393 5.54752 20.1124 5.65777 20.0372 5.76614C19.9178 5.87964 19.8022 6.16045 19.7459 6.32376C19.6802 6.55978 19.4483 6.76001 19.4084 7.0203C19.4011 7.02668 19.4035 7.05158 19.407 7.05258C19.3795 7.12905 19.3548 7.21364 19.3499 7.30925C19.3499 7.30925 19.3484 7.33077 19.3508 7.36769C19.354 7.40548 19.359 7.45429 19.3859 7.51861C19.4363 7.64025 19.5622 7.74549 19.6921 7.7575C19.7558 7.76463 19.812 7.74637 19.8404 7.72534C19.8697 7.70194 19.8727 7.68354 19.8581 7.67028C19.843 7.65626 19.8063 7.65101 19.7632 7.62623C19.7212 7.60107 19.6744 7.5529 19.654 7.47931L19.6616 7.47731C19.6424 7.44177 19.6365 7.41637 19.6301 7.39272C19.6225 7.36431 19.6127 7.33778 19.5972 7.30311C19.6395 7.29736 19.612 7.22403 19.6339 7.20138L19.6368 7.2045C19.6214 7.13205 19.7056 7.08362 19.7049 7.00766C19.707 7.01154 19.7174 7.01742 19.712 7.03256C19.7264 6.98313 19.744 6.91443 19.7689 6.92081C19.8103 6.80543 19.8919 6.65551 19.8903 6.56754L19.8943 6.57542C19.8889 6.52299 19.9161 6.52149 19.9261 6.47043C19.9302 6.46943 19.9334 6.46705 19.9344 6.46818C19.9317 6.41199 19.9958 6.33928 20.0039 6.29886L20.02 6.30437L20.063 6.21702L20.0425 6.2473C20.0084 6.21427 20.1023 6.19612 20.1117 6.12066C20.1488 6.06622 20.0964 5.9561 20.1515 5.90779C20.15 5.86825 20.1665 5.95084 20.1776 5.89991C20.1989 5.91092 20.1786 5.92744 20.2015 5.92644C20.2172 5.87939 20.264 5.87213 20.2814 5.81306L20.2984 5.82095C20.3117 5.73748 20.3976 5.71158 20.3995 5.65126C20.4314 5.5763 20.4747 5.63774 20.492 5.54927L20.5312 5.53738C20.5548 5.51085 20.52 5.49846 20.5531 5.47381C20.5646 5.48495 20.5925 5.44102 20.5912 5.46855C20.6629 5.41174 20.6691 5.30186 20.7746 5.23566C20.7658 5.19649 20.8165 5.16171 20.8101 5.13292C20.8225 5.13831 20.8852 5.04658 20.8664 5.11403C20.8647 5.11966 20.8583 5.12692 20.8546 5.12304L20.8639 5.14068C20.931 5.11403 20.9237 5.04094 20.9704 5.00152C20.9536 5.00991 20.9381 5.02831 20.9401 5.00803L20.9817 4.97024L20.9842 4.98939C21.0058 4.97237 21.0277 4.95698 21.0495 4.94283L21.029 4.93507C21.0656 4.91718 21.0944 4.9367 21.1126 4.89115C21.1203 4.86813 21.0688 4.88915 21.0987 4.86237C21.1234 4.85436 21.1541 4.84598 21.1849 4.84034C21.2004 4.83772 21.2157 4.83496 21.2307 4.83321L21.2527 4.83021C21.2576 4.83008 21.257 4.83121 21.2592 4.83146C21.2546 4.81044 21.2593 4.81006 21.2655 4.80493L21.2654 4.82395C21.2878 4.79767 21.2604 4.86537 21.2737 4.8466L21.2661 4.85861C21.2734 4.84635 21.2816 4.83496 21.2913 4.8242C21.3105 4.81331 21.3063 4.82558 21.3005 4.83234C21.2955 4.84097 21.2898 4.8421 21.3169 4.84034C21.3108 4.83359 21.3547 4.81519 21.3512 4.83734L21.3327 4.83909C21.3379 4.8451 21.3459 4.84698 21.3423 4.85323C21.3321 4.84973 21.3162 4.85511 21.3189 4.86287C21.3115 4.86087 21.3038 4.85974 21.2963 4.85937C21.3075 4.86137 21.3184 4.86687 21.3279 4.87538C21.3067 4.89215 21.3039 4.9551 21.2722 4.95885C21.2746 4.95647 21.2152 5.03369 21.2258 5.06948C21.2214 5.04307 21.1869 5.088 21.1776 5.06397C21.181 5.09651 21.1549 5.17159 21.1208 5.18786L21.1218 5.1816C21.0442 5.26995 21.0457 5.36594 20.9703 5.44177C20.9914 5.44878 20.9531 5.4897 20.9839 5.4922C20.9525 5.5982 20.8351 5.63123 20.8891 5.7082C20.868 5.75237 20.8421 5.74761 20.8254 5.76701L20.8275 5.75475C20.7867 5.83684 20.7738 5.85999 20.7373 5.91718C20.7271 5.95059 20.7585 5.9755 20.7191 6.02267C20.7156 5.99777 20.7054 6.02055 20.6937 6.04007C20.699 6.0263 20.6963 6.01955 20.6719 6.0397C20.6739 6.04583 20.6733 6.05296 20.6723 6.05947C20.6711 6.05909 20.6697 6.05959 20.6686 6.05821C20.6539 6.09363 20.6616 6.0905 20.6724 6.07648C20.6741 6.07849 20.6774 6.07874 20.6841 6.07636C20.6463 6.09964 20.629 6.17122 20.6032 6.16146C20.5502 6.26257 20.5325 6.34691 20.493 6.43376C20.4755 6.43576 20.4762 6.41036 20.4857 6.38395L20.4556 6.4444C20.4385 6.43364 20.4655 6.40523 20.4726 6.38546C20.4035 6.43752 20.4158 6.54401 20.3419 6.60934L20.3456 6.63424L20.3404 6.63774C20.3478 6.64187 20.3468 6.66577 20.3421 6.67916C20.3202 6.68154 20.3079 6.65764 20.285 6.69806C20.2517 6.72096 20.2387 6.79217 20.2221 6.83834C20.238 6.81757 20.2419 6.82983 20.2416 6.8426C20.2302 6.86287 20.2083 6.86537 20.2055 6.88464L20.1841 6.87438C20.2079 6.87801 20.1736 6.93895 20.1775 6.95134C20.1557 6.95372 20.1831 6.91255 20.1747 6.90079C20.1288 6.982 20.1517 6.94133 20.1058 7.02255C20.0955 7.07448 20.1296 7.0263 20.1352 7.05746C20.1167 7.09764 20.1088 7.14294 20.0708 7.17885L20.0969 7.17597C20.0685 7.25531 20.0411 7.29648 19.9944 7.33327C19.8252 7.95022 20.1278 7.56566 20.1278 7.56566C20.2914 7.38108 20.3033 7.24192 20.4372 6.98588Z" fill="#C03E3E"/>
<path d="M34.1041 19.15C34.1308 19.19 34.1441 19.2333 34.1441 19.28C34.1441 19.34 34.1208 19.3933 34.0741 19.44C34.0341 19.48 33.9841 19.5 33.9241 19.5H31.3441C31.1908 19.5 31.0708 19.4467 30.9841 19.34L29.2441 17.19V19.23C29.2441 19.3033 29.2175 19.3667 29.1641 19.42C29.1108 19.4733 29.0475 19.5 28.9741 19.5H26.9141C26.8408 19.5 26.7775 19.4733 26.7241 19.42C26.6708 19.3667 26.6441 19.3033 26.6441 19.23V12.77C26.6441 12.6967 26.6708 12.6333 26.7241 12.58C26.7775 12.5267 26.8408 12.5 26.9141 12.5H28.9741C29.0475 12.5 29.1108 12.5267 29.1641 12.58C29.2175 12.6333 29.2441 12.6967 29.2441 12.77V14.65L30.8241 12.67C30.9241 12.5567 31.0475 12.5 31.1941 12.5H33.6041C33.6641 12.5 33.7141 12.5233 33.7541 12.57C33.8008 12.61 33.8241 12.66 33.8241 12.72C33.8241 12.7733 33.8075 12.82 33.7741 12.86L31.4041 15.75L34.1041 19.15Z" fill="white"/>
<path d="M25.198 16.61C25.198 17.63 24.858 18.3833 24.178 18.87C23.5047 19.3567 22.6047 19.6 21.478 19.6C20.3514 19.6 19.448 19.3567 18.768 18.87C18.0947 18.3833 17.758 17.6233 17.758 16.59V15.41C17.758 14.73 17.918 14.1667 18.238 13.72C18.5647 13.2667 19.008 12.9333 19.568 12.72C20.128 12.5067 20.7647 12.4 21.478 12.4C22.1914 12.4 22.8247 12.5067 23.378 12.72C23.938 12.9333 24.3814 13.2633 24.708 13.71C25.0347 14.1567 25.198 14.7167 25.198 15.39V16.61ZM20.458 16.8C20.458 17.0733 20.548 17.2833 20.728 17.43C20.9147 17.5767 21.1647 17.65 21.478 17.65C21.7914 17.65 22.038 17.5767 22.218 17.43C22.4047 17.2767 22.498 17.0633 22.498 16.79V15.21C22.498 14.9367 22.4047 14.7267 22.218 14.58C22.038 14.4267 21.7914 14.35 21.478 14.35C21.1647 14.35 20.9147 14.4233 20.728 14.57C20.548 14.7167 20.458 14.9267 20.458 15.2V16.8Z" fill="white"/>
<path d="M16.7019 16.61C16.7019 17.63 16.3619 18.3833 15.6819 18.87C15.0086 19.3567 14.1086 19.6 12.9819 19.6C11.8553 19.6 10.9519 19.3567 10.2719 18.87C9.59861 18.3833 9.26195 17.6233 9.26195 16.59V15.41C9.26195 14.73 9.42195 14.1667 9.74195 13.72C10.0686 13.2667 10.5119 12.9333 11.0719 12.72C11.6319 12.5067 12.2686 12.4 12.9819 12.4C13.6953 12.4 14.3286 12.5067 14.8819 12.72C15.4419 12.9333 15.8853 13.2633 16.2119 13.71C16.5386 14.1567 16.7019 14.7167 16.7019 15.39V16.61ZM11.9619 16.8C11.9619 17.0733 12.0519 17.2833 12.2319 17.43C12.4186 17.5767 12.6686 17.65 12.9819 17.65C13.2953 17.65 13.5419 17.5767 13.7219 17.43C13.9086 17.2767 14.0019 17.0633 14.0019 16.79V15.21C14.0019 14.9367 13.9086 14.7267 13.7219 14.58C13.5419 14.4267 13.2953 14.35 12.9819 14.35C12.6686 14.35 12.4186 14.4233 12.2319 14.57C12.0519 14.7167 11.9619 14.9267 11.9619 15.2V16.8Z" fill="white"/>
<path d="M3.56586 16.8C3.56586 17.0733 3.65586 17.2833 3.83586 17.43C4.02253 17.5767 4.27253 17.65 4.58586 17.65C4.86586 17.65 5.07253 17.6033 5.20586 17.51C5.33919 17.4167 5.45253 17.2767 5.54586 17.09C5.63253 16.9167 5.74919 16.83 5.89586 16.83H8.05586C8.11586 16.83 8.16586 16.8533 8.20586 16.9C8.25253 16.94 8.27586 16.99 8.27586 17.05C8.27586 17.4567 8.13919 17.8567 7.86586 18.25C7.59253 18.6367 7.17586 18.96 6.61586 19.22C6.06253 19.4733 5.38586 19.6 4.58586 19.6C3.87253 19.6 3.23586 19.4933 2.67586 19.28C2.12253 19.06 1.68253 18.7267 1.35586 18.28C1.02919 17.8267 0.86586 17.2633 0.86586 16.59V15.41C0.86586 14.7367 1.02919 14.1767 1.35586 13.73C1.68253 13.2767 2.12253 12.9433 2.67586 12.73C3.23586 12.51 3.87253 12.4 4.58586 12.4C5.38586 12.4 6.06253 12.53 6.61586 12.79C7.17586 13.0433 7.59253 13.3667 7.86586 13.76C8.13919 14.1467 8.27586 14.5433 8.27586 14.95C8.27586 15.01 8.25253 15.0633 8.20586 15.11C8.16586 15.15 8.11586 15.17 8.05586 15.17H5.89586C5.74919 15.17 5.63253 15.0833 5.54586 14.91C5.45253 14.7233 5.33919 14.5833 5.20586 14.49C5.07253 14.3967 4.86586 14.35 4.58586 14.35C4.27253 14.35 4.02253 14.4233 3.83586 14.57C3.65586 14.7167 3.56586 14.9267 3.56586 15.2V16.8Z" fill="white"/>
<path d="M17.1506 9.367C17.3046 9.367 17.4356 9.393 17.5436 9.445C17.6516 9.495 17.7316 9.561 17.7836 9.643C17.8376 9.725 17.8646 9.814 17.8646 9.91C17.8646 10.022 17.8346 10.121 17.7746 10.207C17.7146 10.293 17.6206 10.373 17.4926 10.447L17.6876 10.648C17.6916 10.646 17.6996 10.638 17.7116 10.624C17.7236 10.608 17.7396 10.584 17.7596 10.552C17.7796 10.52 17.8016 10.48 17.8256 10.432C17.8296 10.424 17.8366 10.417 17.8466 10.411C17.8566 10.405 17.8696 10.402 17.8856 10.402H18.3716C18.3876 10.402 18.4006 10.407 18.4106 10.417C18.4206 10.427 18.4256 10.44 18.4256 10.456C18.4256 10.516 18.3846 10.612 18.3026 10.744C18.2206 10.876 18.1436 10.98 18.0716 11.056L18.4316 11.407C18.4436 11.419 18.4496 11.433 18.4496 11.449C18.4496 11.463 18.4436 11.475 18.4316 11.485C18.4216 11.495 18.4096 11.5 18.3956 11.5H17.7626C17.7446 11.5 17.7306 11.498 17.7206 11.494C17.7106 11.488 17.6996 11.48 17.6876 11.47L17.6066 11.398C17.5126 11.452 17.4196 11.489 17.3276 11.509C17.2356 11.531 17.1356 11.542 17.0276 11.542C16.7516 11.542 16.5386 11.487 16.3886 11.377C16.2406 11.267 16.1666 11.107 16.1666 10.897C16.1666 10.777 16.1986 10.67 16.2626 10.576C16.3286 10.482 16.4266 10.399 16.5566 10.327C16.4446 10.191 16.3886 10.057 16.3886 9.925C16.3886 9.825 16.4166 9.733 16.4726 9.649C16.5306 9.563 16.6166 9.495 16.7306 9.445C16.8466 9.393 16.9866 9.367 17.1506 9.367ZM17.1506 9.826C17.1226 9.826 17.0976 9.837 17.0756 9.859C17.0556 9.879 17.0456 9.905 17.0456 9.937C17.0456 9.973 17.0746 10.018 17.1326 10.072C17.2166 10.034 17.2586 9.985 17.2586 9.925C17.2586 9.859 17.2226 9.826 17.1506 9.826ZM17.0816 11.035C17.1316 11.035 17.1706 11.025 17.1986 11.005L16.9316 10.735C16.8776 10.761 16.8506 10.803 16.8506 10.861C16.8506 10.911 16.8706 10.953 16.9106 10.987C16.9506 11.019 17.0076 11.035 17.0816 11.035Z" fill="white"/>
<path d="M30.9941 0.5C31.6208 0.5 32.1675 0.606667 32.6341 0.82C33.1008 1.03333 33.4575 1.32333 33.7041 1.69C33.9508 2.05667 34.0741 2.46667 34.0741 2.92C34.0741 3.66667 33.8408 4.25333 33.3741 4.68C32.9075 5.1 32.1141 5.31 30.9941 5.31H29.6741V7.23C29.6741 7.30333 29.6475 7.36667 29.5941 7.42C29.5408 7.47333 29.4775 7.5 29.4041 7.5H27.2541C27.1808 7.5 27.1175 7.47333 27.0641 7.42C27.0108 7.36667 26.9841 7.30333 26.9841 7.23V0.77C26.9841 0.696667 27.0108 0.633334 27.0641 0.58C27.1175 0.526667 27.1808 0.5 27.2541 0.5H30.9941ZM30.9541 3.46C31.1141 3.46 31.2408 3.41333 31.3341 3.32C31.4275 3.22 31.4741 3.09 31.4741 2.93C31.4741 2.76333 31.4275 2.62667 31.3341 2.52C31.2408 2.41333 31.1141 2.36 30.9541 2.36H29.6841V3.46H30.9541Z" fill="white"/>
<path d="M20.038 7.16C19.9514 7.38667 19.8014 7.5 19.588 7.5H17.698C17.638 7.5 17.5847 7.48 17.538 7.44C17.498 7.39333 17.478 7.34 17.478 7.28L17.488 7.22L19.668 0.83C19.6947 0.743334 19.7447 0.666667 19.818 0.6C19.8914 0.533333 19.9914 0.5 20.118 0.5H22.898C23.0247 0.5 23.1247 0.533333 23.198 0.6C23.2714 0.666667 23.3214 0.743334 23.348 0.83L25.528 7.22L25.538 7.28C25.538 7.34 25.5147 7.39333 25.468 7.44C25.428 7.48 25.378 7.5 25.318 7.5H23.428C23.2147 7.5 23.0647 7.38667 22.978 7.16L22.728 6.46H20.288L20.038 7.16ZM21.508 2.43L20.798 4.51H22.218L21.508 2.43Z" fill="white"/>
<path d="M16.1119 0.5C16.1853 0.5 16.2486 0.526667 16.3019 0.58C16.3553 0.633334 16.3819 0.696667 16.3819 0.77V7.23C16.3819 7.30333 16.3553 7.36667 16.3019 7.42C16.2486 7.47333 16.1853 7.5 16.1119 7.5H14.502C14.342 7.5 14.2086 7.43 14.1019 7.29L11.922 4.51V7.23C11.922 7.30333 11.8953 7.36667 11.842 7.42C11.7886 7.47333 11.7253 7.5 11.6519 7.5H9.79195C9.71862 7.5 9.65528 7.47333 9.60195 7.42C9.54862 7.36667 9.52195 7.30333 9.52195 7.23V0.77C9.52195 0.696667 9.54862 0.633334 9.60195 0.58C9.65528 0.526667 9.71862 0.5 9.79195 0.5H11.412C11.572 0.5 11.7019 0.566667 11.8019 0.7L13.9819 3.71V0.77C13.9819 0.696667 14.0086 0.633334 14.062 0.58C14.1153 0.526667 14.1786 0.5 14.252 0.5H16.1119Z" fill="white"/>
<path d="M5.03586 3.04C5.76919 3.12 6.35586 3.25 6.79586 3.43C7.24253 3.61 7.56586 3.84667 7.76586 4.14C7.96586 4.43334 8.06586 4.8 8.06586 5.24C8.06586 5.72 7.90919 6.14 7.59586 6.5C7.28919 6.85334 6.86253 7.12667 6.31586 7.32C5.76919 7.50667 5.14586 7.6 4.44586 7.6C3.66586 7.6 3.00586 7.50334 2.46586 7.31C1.92586 7.11667 1.52252 6.86 1.25586 6.54C0.989191 6.21334 0.855858 5.85667 0.855858 5.47C0.855858 5.40333 0.875858 5.35 0.915858 5.31C0.962525 5.27 1.01919 5.25 1.08586 5.25H3.13586C3.27586 5.25 3.38919 5.29334 3.47586 5.38C3.58919 5.48667 3.71586 5.56 3.85586 5.6C3.99586 5.63333 4.19253 5.65 4.44586 5.65C5.07919 5.65 5.39586 5.55333 5.39586 5.36C5.39586 5.28 5.35252 5.21334 5.26586 5.16C5.18586 5.1 5.03919 5.05 4.82586 5.01C4.61919 4.96333 4.31252 4.91667 3.90586 4.87C2.99252 4.76334 2.29252 4.53667 1.80586 4.19C1.31919 3.83667 1.07586 3.34 1.07586 2.7C1.07586 2.24667 1.21252 1.84667 1.48586 1.5C1.75919 1.15334 2.14586 0.883335 2.64586 0.690001C3.15252 0.496668 3.73919 0.400002 4.40586 0.400002C5.09919 0.400002 5.70586 0.510001 6.22586 0.730001C6.74586 0.943335 7.14252 1.21 7.41586 1.53C7.68919 1.85 7.82586 2.16333 7.82586 2.47C7.82586 2.53667 7.80253 2.59 7.75586 2.63C7.71586 2.67 7.65919 2.69 7.58586 2.69H5.43586C5.32252 2.69 5.21919 2.65 5.12586 2.57C5.05252 2.50333 4.96586 2.45 4.86586 2.41C4.76586 2.37 4.61252 2.35 4.40586 2.35C3.95919 2.35 3.73586 2.44333 3.73586 2.63C3.73586 2.73 3.82252 2.81 3.99586 2.87C4.16919 2.92334 4.51586 2.98 5.03586 3.04Z" fill="white"/>
</svg>
